<svg xmlns="http://www.w3.org/2000/svg" viewBox="0 0 1364 960"><path fill="#D6EAFF" d="M1069.738 691.399c0 28.24-2.95 55.796-8.565 82.364H285.105c-5.616-26.568-8.565-54.124-8.565-82.364 0-219.039 177.563-396.602 396.596-396.602 219.038-.001 396.602 177.563 396.602 396.602z"/><path fill="#E8586B" d="M279.752 206.021h90.423c49.43 0 89.5 40.071 89.5 89.5 0 26.062-11.147 49.514-28.924 65.87 5.874 19.961 20.768 32.684 61.14 40.599-43.941 5.447-75.745-1.484-96.676-20.546a89.468 89.468 0 0 1-25.04 3.577h-90.423c-49.43 0-89.5-40.071-89.5-89.5-.001-49.429 40.07-89.5 89.5-89.5z"/><path fill="#FFF" d="M413.573 295.469a9.438 9.438 0 1 0-18.876 0 9.438 9.438 0 1 0 18.876 0zM383.806 295.469a9.438 9.438 0 1 0-18.876 0 9.438 9.438 0 1 0 18.876 0zM354.039 295.469a9.438 9.438 0 1 0-18.876 0 9.438 9.438 0 1 0 18.876 0zM321.867 295.469c0-5.212-4.225-9.438-9.438-9.438s-9.438 4.226-9.438 9.438c0 5.212 4.225 9.438 9.438 9.438s9.438-4.226 9.438-9.438zM292.099 295.469c0-5.212-4.225-9.438-9.438-9.438s-9.438 4.226-9.438 9.438c0 5.212 4.225 9.438 9.438 9.438s9.438-4.226 9.438-9.438zM262.333 295.469a9.438 9.438 0 1 0-18.876 0 9.438 9.438 0 0 0 18.876 0z"/><path fill="#326AB3" d="M877.691 731.029c-20.982 18.773-68.561 30.51-68.561 30.51H564.309s-47.579-11.737-68.552-30.51c-20.982-18.773 15.35-152.542 31.204-195.554 3.447-9.355 10.041-17.598 18.252-24.775 21.999-19.238 51.115-29.288 66.938-33.542 16.229-4.363 43.443-4.272 43.443-4.272l59.076-.08s29.468-.316 42.267 2.454c15.599 3.375 47.516 15.602 69.499 33.91 9.039 7.533 16.343 16.28 20.043 26.306 15.862 43.011 52.185 176.78 31.212 195.553z"/><path fill="#EBB5B5" d="M714.669 472.806c-15.648 11.027-28.599 16.412-29.28 16.688h-.009c-.009-.009-.018-.009-.037 0h-.009c-.681-.285-13.695-5.49-29.435-16.609 1.058-14.461.781-30.308-.306-46.738h59.545c-2.301 16.2-2.484 31.766-.469 46.659z"/><path fill="#F9CBCB" d="M759.146 359.805a79.285 79.285 0 0 1-.285 5.32c-3.525 42.111-29.4 92.704-71.741 92.704-44.698 0-72.378-54.712-72.378-99.401 0-1.85.064-3.673.184-5.495.12-1.73.285-3.442.507-5.136l.009-.009c3.93-5.311 9.214-9.582 15.648-12.96 14.534-7.631 27.202-10.742 51.336-10.742 28.857 0 44.744 4.092 60.944 15.459 7.409 5.192 12.867 11.865 15.776 20.26z"/><path fill="#FFF" d="M830.964 561.32H538.216c-11.356 0-19.585 10.176-18.395 22.566l16.688 173.769c.948 9.872 9.78 17.782 19.737 17.782h256.689c9.958 0 18.789-7.911 19.737-17.782l16.688-173.769c1.189-12.39-7.04-22.566-18.396-22.566z"/><circle cx="679.629" cy="668.376" r="17.017" fill="#E6E7F0"/><path fill="#173052" d="M623.469 403.792c-9.346-25.936 7.605-30.656 3.885-51.553 0 0 12.49 4.126 24.37-9.137 0 0-.457 5.894-2.285 7.073 0 0 28.94-1.031 43.562-18.862 0 0-1.98 14.441-9.901 18.714 0 0 19.496 1.622 29.245-16.504 0 0 2.894 8.4-1.371 11.495 0 0 13.708-2.063 16.603-13.704 0 0 3.351 34.483 17.211 40.819 0 0-.152-6.336 1.371-8.695 0 0 1.523 10.021 4.569 16.21 3.047 6.19-.119 20.541-.119 20.541s5.664-9.61 6.821-12.731c4.175-11.27 22.032-59.829-17.723-85.176-39.754-25.346-79.66-14.147-89.561.295-11.881.884-26.655 7.221-34.576 24.02-9.675 20.524-6.421 62.757 7.899 77.195z"/><path fill="#62C0A6" d="M1174.029 685.446c-5.018-17.995-22.084-31.948-40.717-33.293-15.385-1.11-31.084 6.159-40.317 18.515-7.584 10.149-10.778 23.467-8.623 35.953 2.155 12.485 9.63 23.961 20.177 30.981h53.035c15.248-10.795 21.463-34.161 16.445-52.156z"/><path fill="#4DAB91" d="M1174.029 685.446c-2.114-7.579-6.37-14.435-11.974-19.941.139.557.268 1.119.386 1.685 5.329 25.519-14.798 49.323-40.867 49.323h-22.131c-5.247 0-10.352-1.967-14.072-5.668l-.064-.064c2.949 10.843 9.88 20.589 19.243 26.82h53.035c15.248-10.794 21.462-34.16 16.444-52.155z"/><path fill="#D94559" d="M1165.367 730.299V764.7c0 2.539-1.854 4.756-4.373 5.119-2.338.343-4.716.645-7.094.907-16.908 1.773-34.823 1.29-53.525-.967-2.801-.342-4.897-2.761-4.897-5.582V730.3c2.499.283 4.998.544 7.497.766 21.14 1.933 41.978 1.893 62.392-.767z"/><path fill="#CCC" d="M1165.367 730.299V764.7c0 2.539-1.854 4.756-4.373 5.119-2.338.343-4.716.645-7.094.907-.036-24.984-33.519-30.022-58.422-29.019v-6.932s3.003-1.491 7.497-3.708c21.14 1.932 41.978 1.892 62.392-.768z"/><path fill="#D94559" d="M1170.274 734.78h-79.313a.971.971 0 0 1-.971-.971v-6.377c0-.536.435-.971.971-.971h79.313c.536 0 .971.435.971.971v6.377a.971.971 0 0 1-.971.971zM1148.653 644.582c-1.282-2.163-4.851-2.776-6.324-.739 1.282-1.41 3.144-3.488 1.604-5.795-1.778-2.666-5.995-.848-6.624 1.603.33-2.221.571-4.497-.077-6.633-.722-2.381-2.885-4.521-5.368-4.354-1.865.126-3.458 1.517-4.34 3.166-.882 1.649-1.178 3.539-1.452 5.389-.762-1.708-3.088-2.323-4.806-1.584-4.051 1.74-2.94 4.957-2.407 8.197-1.193-2.423-5.329-1.565-6.632.374-2.442 3.633-.473 8.392 2.672 10.509 10.406 2.059 20.78 1.786 31.137.359 2.182-1.252 3.899-8.329 2.617-10.492z"/><path fill="#99DECB" d="M1097.868 689.118a1.49 1.49 0 0 0-.381-.653l-.299-.231a1.465 1.465 0 0 0-.747-.202.625.625 0 0 0-.097-.003 2.374 2.374 0 0 0-.468.063.448.448 0 0 0-.034.011c-.061.025-.122.05-.182.077-.061.025-.121.05-.182.077l-.015.007a1.54 1.54 0 0 0-.349.267 1.71 1.71 0 0 0-.438.762 2.501 2.501 0 0 0-.063.465.669.669 0 0 0 .003.1c-.007.204.035.394.128.57.06.184.162.342.306.476.134.144.293.246.476.306.176.092.366.135.57.127l.394-.053c.25-.071.468-.197.652-.381l.19-.246c.05-.039.113-.053.157-.1a1.11 1.11 0 0 0 .306-.476c.093-.176.135-.366.127-.57-.02-.131-.037-.262-.054-.393zM1101.634 677.992c-1.904 0-1.907 2.958 0 2.958 1.903.001 1.906-2.958 0-2.958zM1114.443 664.145c-1.904 0-1.907 2.958 0 2.958 1.903 0 1.906-2.958 0-2.958zM1110.981 701.534c-1.904 0-1.907 2.958 0 2.958 1.903 0 1.907-2.958 0-2.958zM1128.678 685.31a1.475 1.475 0 0 0-.38-.652l-.3-.231a1.468 1.468 0 0 0-.746-.202h-1.039a1.106 1.106 0 0 0-.57.128 1.11 1.11 0 0 0-.476.306 1.11 1.11 0 0 0-.306.476 1.106 1.106 0 0 0-.127.57l.053.393c.07.251.197.468.38.653l.3.231c.23.134.48.201.746.202h1.039a1.11 1.11 0 0 0 .57-.128c.183-.06.342-.161.476-.306.144-.133.246-.292.305-.476.093-.177.135-.366.128-.57l-.053-.394zM1093.564 705.728l-.232-.299a1.462 1.462 0 0 0-.652-.38l-.394-.053a1.485 1.485 0 0 0-.747.202l-.692.346c-.172.093-.31.22-.415.381a1.106 1.106 0 0 0-.264.503 1.118 1.118 0 0 0-.027.59c.009.197.067.38.175.55l.231.299c.185.183.403.31.653.381l.393.053c.267-.001.516-.068.747-.202l.693-.346c.172-.093.31-.22.415-.381.13-.143.219-.31.264-.503.062-.197.071-.393.027-.59a1.103 1.103 0 0 0-.175-.551zM1107.561 718.544a1.475 1.475 0 0 0-.38-.652l-.299-.231a1.474 1.474 0 0 0-.747-.202.616.616 0 0 0-.096-.003 2.462 2.462 0 0 0-.468.063 4.967 4.967 0 0 0-.216.088l-.181.077-.016.007a1.714 1.714 0 0 0-.787 1.028 2.42 2.42 0 0 0-.063.465c-.003.033 0 .066.003.1a1.11 1.11 0 0 0 .128.57c.059.184.161.342.306.476.134.145.292.246.476.306.176.093.366.135.57.128l.394-.053c.25-.07.468-.197.652-.381l.19-.246c.049-.038.113-.052.156-.1.144-.134.246-.293.306-.476.092-.176.134-.366.127-.57-.021-.132-.038-.263-.055-.394zM1136.912 712.136a1.11 1.11 0 0 0-.306-.476 1.1 1.1 0 0 0-.476-.305 1.104 1.104 0 0 0-.569-.127l-.393.053c-.251.07-.469.197-.653.38l-.231.299c-.134.231-.202.48-.202.747v.346a1.11 1.11 0 0 0 .127.57c.059.183.161.342.306.476.133.144.292.246.475.306.177.092.367.135.57.127l.393-.053c.251-.07.468-.197.653-.38l.231-.299c.135-.231.201-.479.202-.746v-.346a1.108 1.108 0 0 0-.127-.572zM1114.443 685.955c-1.904 0-1.907 2.958 0 2.958 1.903 0 1.906-2.958 0-2.958zM1102.673 666.568c-1.904 0-1.907 2.958 0 2.958 1.903 0 1.906-2.958 0-2.958zM1145.068 661.406a1.477 1.477 0 0 0-.381-.653l-.299-.231a1.474 1.474 0 0 0-.747-.202h-.346a1.1 1.1 0 0 0-.569.128c-.184.06-.343.162-.476.306a1.098 1.098 0 0 0-.306.476 1.106 1.106 0 0 0-.127.57l.053.393c.07.25.197.468.381.652l.299.232c.231.134.479.201.746.202h.346c.204.008.393-.035.57-.128a1.11 1.11 0 0 0 .476-.306 1.11 1.11 0 0 0 .306-.476c.093-.176.135-.366.127-.57l-.053-.393zM1122.793 675.27a1.484 1.484 0 0 0-.38-.653l-.299-.232a1.47 1.47 0 0 0-.746-.202h-.347a1.122 1.122 0 0 0-.569.127 1.11 1.11 0 0 0-.476.306 1.108 1.108 0 0 0-.306.476 1.119 1.119 0 0 0-.128.57l.053.393c.071.251.197.468.38.653l.299.231c.231.134.479.201.746.202h.347c.203.008.393-.035.569-.127.183-.06.342-.162.476-.306a1.11 1.11 0 0 0 .306-.476c.092-.176.134-.366.127-.57l-.052-.392zM1124.828 700.841c-1.903 0-1.906 2.958 0 2.958 1.904 0 1.908-2.958 0-2.958zM1128.332 718.198l-.149-.353a1.498 1.498 0 0 0-.53-.531l-.354-.149a1.497 1.497 0 0 0-.786 0c-.162.05-.321.125-.47.193a.804.804 0 0 0-.161.091c-.116.082-.229.173-.341.262a1.125 1.125 0 0 0-.183.185c-.099.125-.212.258-.301.398a1.662 1.662 0 0 0-.065.117c-.078.155-.141.318-.205.48a1.117 1.117 0 0 0-.027.59c.009.196.068.38.176.55.093.172.22.311.381.415.142.131.31.219.503.265l.393.053c.267-.001.516-.068.747-.202l.299-.231c.1-.101.141-.236.208-.357.013-.015.029-.027.041-.041.011-.005.02-.013.031-.018l-.033.078c.018-.042.046-.078.068-.118.075-.042.163-.06.228-.119.161-.105.288-.243.38-.415a1.11 1.11 0 0 0 .176-.55c.044-.2.035-.396-.026-.593zM1159.448 692.533c-1.903 0-1.906 2.958 0 2.958 1.903 0 1.906-2.958 0-2.958zM1159.069 713.521a1.11 1.11 0 0 0-.306-.476 1.105 1.105 0 0 0-.476-.305 1.119 1.119 0 0 0-.57-.128l-.393.053c-.25.071-.468.197-.653.38l-.23.299c-.134.231-.202.48-.202.747v.346c-.008.204.034.394.127.57.059.183.161.342.305.476.134.144.293.246.476.306.176.092.366.135.57.127l.393-.053c.251-.071.469-.197.653-.381l.231-.299c.134-.231.201-.48.202-.747v-.346a1.124 1.124 0 0 0-.127-.569zM1144.949 697.427a1.479 1.479 0 0 0-.38-.653l-.3-.231a1.474 1.474 0 0 0-.747-.202h-.691a1.122 1.122 0 0 0-.571.128c-.183.06-.342.161-.476.306a1.117 1.117 0 0 0-.306.476 1.116 1.116 0 0 0-.127.57l.053.394c.07.25.197.468.38.652l.299.231c.231.134.48.201.747.202h.691c.204.008.394-.035.571-.127.183-.06.342-.161.476-.306.144-.134.246-.293.306-.476.092-.176.135-.366.127-.57a42.013 42.013 0 0 0-.052-.394zM1149.029 716.29a1.117 1.117 0 0 0-.306-.476l-.299-.231a1.474 1.474 0 0 0-.746-.202l-.394.053c-.251.07-.468.197-.653.38l-.346.346a1.117 1.117 0 0 0-.306.476 1.116 1.116 0 0 0-.128.57c-.007.204.035.394.128.57.059.184.162.342.306.476l.299.231c.231.133.48.201.746.202l.393-.053c.251-.07.468-.197.653-.38l.346-.346c.144-.134.246-.293.306-.476.092-.176.135-.366.128-.57a1.116 1.116 0 0 0-.127-.57zM1168.795 700.841c-1.904 0-1.907 2.958 0 2.958 1.903 0 1.906-2.958 0-2.958zM1154.255 674.53c-1.904 0-1.907 2.958 0 2.958 1.903.001 1.907-2.958 0-2.958zM1139.715 677.647c-1.903 0-1.906 2.958 0 2.958 1.903 0 1.906-2.958 0-2.958zM1155.294 702.919c-1.903 0-1.907 2.958 0 2.958 1.903 0 1.906-2.958 0-2.958zM1131.102 669.039a1.475 1.475 0 0 0-.381-.653l-.299-.231a1.474 1.474 0 0 0-.747-.202h-.346a1.116 1.116 0 0 0-.57.127 1.108 1.108 0 0 0-.476.306 1.11 1.11 0 0 0-.306.476 1.098 1.098 0 0 0-.127.57l.053.393c.07.251.197.468.38.653l.299.231c.231.134.479.201.747.202h.346c.204.008.394-.035.57-.128.183-.059.342-.161.476-.305.145-.134.246-.293.306-.476.093-.177.135-.367.128-.57a52.894 52.894 0 0 1-.053-.393zM1148.37 664.491c-1.904 0-1.907 2.958 0 2.958 1.903 0 1.906-2.958 0-2.958zM1126.169 661.187c-1.904 0-1.906 2.958 0 2.958 1.904 0 1.907-2.958 0-2.958zM1167.756 683.531c-1.903 0-1.907 2.958 0 2.958 1.904.001 1.907-2.958 0-2.958zM1101.634 709.15c-1.904 0-1.907 2.958 0 2.958 1.903 0 1.906-2.958 0-2.958zM1097.793 719.752a1.117 1.117 0 0 0-.306-.476l-.299-.231a1.485 1.485 0 0 0-.747-.202l-.393.053a1.47 1.47 0 0 0-.652.38l-.346.346a1.114 1.114 0 0 0-.306.477 1.114 1.114 0 0 0-.128.57c-.007.203.035.393.128.569.06.184.162.343.306.476l.3.231c.23.134.479.201.746.202l.394-.053c.25-.07.468-.197.652-.38l.347-.346c.144-.134.246-.293.306-.476.093-.176.135-.366.127-.57a1.153 1.153 0 0 0-.129-.57zM1090.209 691.494c-1.903 0-1.907 2.958 0 2.958 1.904 0 1.907-2.958 0-2.958z"/><path fill="#E8586B" d="M409.529 628.656H230.945a4.302 4.302 0 0 0-4.302 4.302v26.512a4.302 4.302 0 0 0 4.302 4.302h178.583a4.302 4.302 0 0 0 4.302-4.302v-26.512a4.302 4.302 0 0 0-4.301-4.302z"/><path fill="#C74848" d="M409.529 628.656h-2.243v8.731c0 11.655-9.448 21.102-21.102 21.102h-159.54v.98a4.302 4.302 0 0 0 4.302 4.302h178.583a4.302 4.302 0 0 0 4.302-4.302v-26.512a4.303 4.303 0 0 0-4.302-4.301z"/><path fill="#FFF" d="M252.634 628.656h11.49v35.115h-11.49zM270.708 628.656h11.49v35.115h-11.49zM415.894 742.125v22.707H349.89c-6.262 0-11.358-5.087-11.358-11.349 0-6.262 5.096-11.358 11.358-11.358h66.004z"/><path fill="#326AB3" d="M349.89 742.125c-9.908 0-16.897 12.758-5.399 22.707h71.403v4.486H229.218a4.831 4.831 0 0 1-4.831-4.831V742.47a4.831 4.831 0 0 1 4.831-4.831h186.676v4.486H349.89z"/><path fill="#2A5FA3" d="M349.141 742.151c.248-.016.497-.026.749-.026h66.004v-4.486h-61.717a11.436 11.436 0 0 0-5.036 4.512zM343.382 763.806h-90.199c-10.933 0-19.797-8.863-19.797-19.797v-6.37h-4.168a4.831 4.831 0 0 0-4.831 4.831v22.017a4.831 4.831 0 0 0 4.831 4.831h186.676v-4.486h-71.403c-.392-.339-.76-.681-1.109-1.026z"/><path fill="#6692CC" d="M338.532 753.483c0 6.262 5.096 11.349 11.358 11.349h66.004v4.486H349.89c-8.738 0-15.844-7.106-15.844-15.835 0-8.738 7.105-15.844 15.844-15.844h66.004v4.486H349.89c-6.262 0-11.358 5.096-11.358 11.358z"/><path fill="#FFF" d="M291.293 737.639h4.25v31.679h-4.25zM280.667 737.639h4.25v31.679h-4.25zM304.754 755.179a9.206 9.206 0 1 1 18.413 0 9.206 9.206 0 0 1-18.413 0z"/><path fill="#E6E8F0" d="M384.142 746.706h-34.717a.853.853 0 0 1 0-1.706h34.717a.853.853 0 0 1 0 1.706zM409.088 762.895h-39.395a.853.853 0 0 1 0-1.706h39.395a.852.852 0 1 1 0 1.706zM384.142 754.975h-21.616a.853.853 0 0 1 0-1.706h21.616a.853.853 0 0 1 0 1.706zM358.276 754.975h-9.242a.853.853 0 0 1 0-1.706h9.242a.853.853 0 0 1 0 1.706zM405.341 754.975h-9.242a.853.853 0 0 1 0-1.706h9.242a.854.854 0 0 1 0 1.706zM399.028 747.558h-2.929a.853.853 0 0 1 0-1.706h2.929a.853.853 0 0 1 0 1.706zM365.192 762.895h-2.929a.853.853 0 0 1 0-1.706h2.929a.853.853 0 0 1 0 1.706zM413.723 754.975h-2.929a.853.853 0 0 1 0-1.706h2.929a.853.853 0 0 1 0 1.706z"/><path fill="#326AB3" d="M386.665 750.249v9.86l5.014-3.485 5.015 3.485v-9.86z"/><path fill="#FFF" d="M242.517 710.447v22.707h66.004c6.262 0 11.358-5.087 11.358-11.349 0-6.262-5.096-11.358-11.358-11.358h-66.004z"/><path fill="#FFC661" d="M308.52 710.447c9.909 0 16.897 12.758 5.399 22.707h-71.403v4.486h187.978a3.529 3.529 0 0 0 3.529-3.529V709.49a3.529 3.529 0 0 0-3.529-3.529H242.517v4.486h66.003z"/><path fill="#FFB32E" d="M311.602 710.872a11.335 11.335 0 0 0-8.679-4.043h-60.406v3.617h66.004c1.067.001 2.1.149 3.081.426z"/><path fill="#FFB129" d="M430.495 705.961h-2.069v11.957c0 8.894-7.21 16.105-16.105 16.105H242.517v3.617h187.978a3.529 3.529 0 0 0 3.529-3.529V709.49a3.53 3.53 0 0 0-3.529-3.529z"/><path fill="#FFCD75" d="M319.879 721.804c0 6.262-5.096 11.349-11.358 11.349h-66.004v4.486h66.004c8.738 0 15.844-7.106 15.844-15.835 0-8.738-7.106-15.844-15.844-15.844h-66.004v4.486h66.004c6.262.001 11.358 5.096 11.358 11.358z"/><path fill="#FFF" d="M367.118 737.639h-4.25V705.96h4.25zM377.744 737.639h-4.25V705.96h4.25zM335.187 721.8a8.69 8.69 0 1 1 17.382 0 8.69 8.69 0 0 1-17.382 0z"/><path fill="#E6E8F0" d="M284.384 714.792h-38.877a.853.853 0 0 1 0-1.706h38.877a.853.853 0 0 1 0 1.706zM312.18 730.982h-44.09a.853.853 0 0 1 0-1.706h44.09a.853.853 0 0 1 0 1.706zM284.384 723.061h-24.28a.853.853 0 0 1 0-1.706h24.28a.852.852 0 1 1 0 1.706zM255.564 723.061h-10.492a.853.853 0 0 1 0-1.706h10.492a.853.853 0 0 1 0 1.706zM308.005 723.061h-10.492a.853.853 0 0 1 0-1.706h10.492a.854.854 0 0 1 0 1.706zM301.906 714.792h-3.458a.853.853 0 0 1 0-1.706h3.458a.853.853 0 0 1 0 1.706zM263.27 730.982h-3.458a.853.853 0 0 1 0-1.706h3.458a.853.853 0 0 1 0 1.706zM317.344 723.061h-3.458a.853.853 0 0 1 0-1.706h3.458a.853.853 0 0 1 0 1.706z"/><path fill="#C24E4E" d="M295.736 716.837v9.926l-4.443-3.508-4.443 3.508v-9.926z"/><path fill="#FFF" d="M295.091 646.213a9.13 9.13 0 0 1 9.131-9.131 9.13 9.13 0 0 1 9.131 9.131 9.132 9.132 0 1 1-18.262 0zM417.28 705.011c-.98-.35-163.843.666-164.545-.346-3.96-1.844-7.307-4.959-9.453-8.758h-.026v-20.813h.016c2.279-4.04 5.91-7.297 10.188-9.099h163.526c-3.863 12.64-2.36 26.276.294 39.016z"/><path fill="#FF9C61" d="M419.779 700.716a3.155 3.155 0 0 1-2.23 5.387H258.735c-2.909 0-5.68-.584-8.2-1.646a17.563 17.563 0 0 1-.773-.347 14.76 14.76 0 0 1-.778-.384c-.211-.111-.421-.221-.631-.342a16.666 16.666 0 0 1-.657-.389c-.184-.11-.368-.227-.547-.342-.189-.126-.379-.252-.563-.384-.163-.116-.326-.232-.484-.347a20.959 20.959 0 0 1-.494-.384 15.933 15.933 0 0 1-.426-.347 15.03 15.03 0 0 1-.82-.726c-.142-.126-.279-.258-.416-.389l-.174-.173a4.281 4.281 0 0 1-.163-.169 8.175 8.175 0 0 1-.363-.384 6.275 6.275 0 0 1-.321-.347c-.111-.126-.226-.253-.331-.384a5.36 5.36 0 0 1-.284-.342 11.74 11.74 0 0 1-.31-.389 8.046 8.046 0 0 1-.258-.342 9.92 9.92 0 0 1-.279-.384c-.084-.116-.168-.232-.242-.347-.089-.127-.174-.258-.258-.384-.074-.116-.147-.226-.216-.342-.079-.126-.158-.258-.237-.389a12.344 12.344 0 0 1-.226-.394 21.073 21.073 0 0 1-2.709-10.367c0-3.766.984-7.3 2.709-10.367l.016-.032a7.65 7.65 0 0 1 .2-.342c.073-.132.153-.263.237-.389.068-.116.142-.226.216-.342.079-.126.163-.257.252-.384.079-.115.158-.231.242-.347.089-.131.184-.258.279-.384.084-.116.168-.231.258-.342.1-.131.205-.263.305-.389.095-.116.189-.231.284-.342.111-.131.221-.258.337-.384.1-.121.205-.237.316-.347.116-.132.237-.258.363-.384.111-.116.226-.232.342-.347.132-.126.268-.258.405-.384.121-.116.247-.232.379-.342.147-.131.3-.263.452-.389.137-.116.273-.232.416-.342a18.6 18.6 0 0 1 .972-.731c.184-.132.374-.258.563-.384.179-.115.358-.231.542-.342.215-.136.436-.263.657-.389a21.642 21.642 0 0 1 2.172-1.073 21.112 21.112 0 0 1 8.247-1.668h158.813c.873 0 1.662.353 2.23.926.573.568.926 1.357.926 2.23a3.152 3.152 0 0 1-3.156 3.156H259.287c-.531 0-1.057.026-1.572.079-.768.073-1.515.205-2.246.384-.4.1-.8.215-1.189.347a13.492 13.492 0 0 0-1.798.726c-.258.121-.51.247-.763.389-.2.105-.394.216-.589.342-.205.121-.41.247-.61.384-.168.11-.337.226-.5.347-.174.127-.337.253-.505.384-.142.111-.279.227-.416.342-.147.126-.295.252-.437.389-.121.11-.242.226-.363.342a8.558 8.558 0 0 0-.379.384 9.028 9.028 0 0 0-.316.347 5.483 5.483 0 0 0-.326.384c-.1.111-.195.226-.279.342-.105.126-.2.258-.295.389a7.065 7.065 0 0 0-.252.347c-.084.126-.168.252-.247.379a3.845 3.845 0 0 0-.215.347c-.084.126-.158.258-.232.389a3.808 3.808 0 0 0-.184.342 4.99 4.99 0 0 0-.2.384c-.058.116-.116.231-.163.347a5.305 5.305 0 0 0-.174.384 5.186 5.186 0 0 0-.137.342 3.947 3.947 0 0 0-.147.389 3.84 3.84 0 0 0-.121.342 3.357 3.357 0 0 0-.121.384 4.052 4.052 0 0 0-.105.347c-.037.126-.068.258-.1.384a3.78 3.78 0 0 0-.079.342 4.867 4.867 0 0 0-.079.389c-.026.11-.047.226-.063.342a4.664 4.664 0 0 0-.058.384 3.752 3.752 0 0 0-.047.347c-.016.126-.026.253-.037.384a3.682 3.682 0 0 0-.026.347 4.81 4.81 0 0 0-.016.384c-.011.11-.016.226-.011.342-.005.063-.005.121-.005.184 0 .068 0 .137.005.205 0 .115 0 .231.011.342 0 .131.005.258.016.384.005.116.016.231.032.347.005.132.016.258.037.384.01.116.026.231.047.342.011.131.032.263.058.389.016.116.037.232.063.347.021.126.047.252.079.379.021.116.047.232.079.347.032.131.063.258.1.389.031.116.069.231.105.342.037.131.073.258.126.384.032.116.068.232.116.342.042.131.095.258.147.389a4.5 4.5 0 0 0 .142.342c.053.131.111.258.174.384.047.116.105.232.163.347.063.132.126.258.2.384.058.115.121.226.184.342.074.131.147.263.231.389.068.116.137.231.216.342.079.132.163.258.253.384.079.115.163.231.253.347.089.131.189.258.289.384.089.116.179.231.279.342.105.131.215.263.337.389.1.121.205.231.316.347.121.126.247.258.373.379.121.121.247.237.368.347.142.136.289.263.442.389.137.116.274.231.416.342.168.131.337.263.51.384.163.121.331.237.5.347.2.137.4.263.61.384.195.121.394.237.6.342.247.142.505.268.763.389.247.121.505.237.763.342.347.142.7.269 1.057.384.4.137.805.252 1.22.347.789.195 1.604.321 2.435.384.426.042.852.058 1.289.058H417.55a3.124 3.124 0 0 1 2.229.925z"/><path fill="#E6E8F0" d="M338.827 678.086h-81.535a.853.853 0 0 1 0-1.706h81.535a.852.852 0 1 1 0 1.706zM395.841 694.276h-92.226a.853.853 0 0 1 0-1.706h92.226a.853.853 0 0 1 0 1.706zM338.827 686.356h-51.595a.853.853 0 0 1 0-1.706h51.595a.852.852 0 1 1 0 1.706zM279.714 686.355H256.4a.853.853 0 0 1 0-1.706h23.314a.853.853 0 0 1 0 1.706zM387.276 686.355h-23.313a.853.853 0 0 1 0-1.706h23.313a.853.853 0 0 1 0 1.706zM372.848 678.939h-8.886a.853.853 0 0 1 0-1.706h8.886a.853.853 0 0 1 0 1.706zM295.519 694.276h-8.886a.853.853 0 0 1 0-1.706h8.886a.853.853 0 0 1 0 1.706zM406.432 686.355h-8.886a.853.853 0 0 1 0-1.706h8.886a.852.852 0 1 1 0 1.706z"/><path fill="#C24E4E" d="m355.025 689.281-5.321-3.025-5.322 3.025V676.38h10.643z"/><path fill="#FFC45C" d="m940.061 712.956 41.846-143.136 23.115 6.758-41.846 143.136z"/><path fill="#FAEDDE" d="m996.083 582.142.35-1.199 6.662 1.947-.35 1.199zM992.59 594.057l.35-1.198 6.66 1.946-.35 1.199zM989.117 605.972l.35-1.199 6.66 1.947-.35 1.199zM985.746 617.878l.351-1.2 6.661 1.949-.35 1.2zM982.26 629.803l.351-1.199 6.661 1.949-.35 1.199zM978.663 641.726l.35-1.198 6.662 1.946-.35 1.2zM975.177 653.65l.35-1.199 6.661 1.947-.35 1.199zM971.69 665.574l.351-1.199 6.661 1.947-.35 1.199zM968.217 677.49l.35-1.2 6.662 1.947-.35 1.199zM964.843 689.37l.35-1.198 6.662 1.947-.35 1.199zM961.358 701.318l.35-1.199 6.661 1.95-.35 1.198zM957.877 713.203l.35-1.198 6.662 1.946-.35 1.2z"/><path fill="#52A1FA" d="m929.15 584.377 5.804-.775 17.488 130.924-5.805.776z"/><path fill="#FFC3C0" d="m952.435 714.51-1.022 6.368-.58 3.649-1.535-3.366-2.658-5.877z"/><path fill="#2363A8" d="m934.715 584.883-4.999.668a1.14 1.14 0 0 1-1.28-.978l-.736-5.509a3.66 3.66 0 0 1 3.143-4.112 3.658 3.658 0 0 1 4.112 3.143l.736 5.509a1.136 1.136 0 0 1-.976 1.279zM935.418 587.524l-5.687.76a.786.786 0 0 1-.208-1.558l5.687-.759a.784.784 0 1 1 .208 1.557zM935.741 589.943l-5.687.76a.786.786 0 0 1-.208-1.558l5.687-.76a.785.785 0 1 1 .208 1.558z"/><path fill="#4D4D4D" d="m951.413 720.878-.58 3.649-1.535-3.366z"/><path fill="#2363A8" d="m958.63 712.623-5.84-.43 9.722-131.731 5.84.43z"/><path fill="#FFC3C0" d="m962.568 580.436 2.307-6.023 1.316-3.452.812 3.609 1.396 6.297z"/><path fill="#862A26" d="m953.328 710.942 5.029.371a1.139 1.139 0 0 1 1.052 1.219l-.409 5.543a3.66 3.66 0 1 1-7.3-.54l.409-5.542a1.138 1.138 0 0 1 1.219-1.051zM953.181 708.213l5.722.422a.786.786 0 1 1-.116 1.568l-5.722-.422a.786.786 0 0 1-.726-.842.785.785 0 0 1 .842-.726zM953.362 705.779l5.721.422a.786.786 0 1 1-.116 1.568l-5.722-.422a.786.786 0 1 1 .117-1.568z"/><path fill="#30334D" d="m964.875 574.413 1.316-3.452.812 3.609z"/><path fill="#2363A8" d="m1007.281 625.902 5.853-.197 4.438 132.008-5.853.196z"/><path fill="#FFC3C0" d="m1017.626 757.689-1.649 6.236-.938 3.573-1.194-3.502-2.063-6.111z"/><path fill="#52A1FA" d="m1012.836 626.944-5.04.169a1.139 1.139 0 0 1-1.176-1.1l-.186-5.555a3.66 3.66 0 0 1 7.316-.246l.186 5.555a1.138 1.138 0 0 1-1.1 1.177zM1013.274 629.642l-5.734.193a.787.787 0 0 1-.052-1.571l5.734-.193a.787.787 0 0 1 .052 1.571zM1013.356 632.081l-5.734.193a.785.785 0 1 1-.053-1.571l5.734-.192a.786.786 0 0 1 .053 1.57z"/><path fill="#4D4D4D" d="m1015.977 763.925-.938 3.573-1.194-3.502z"/><path fill="#FFC45C" d="m1038.672 625.94 5.81.736-16.616 131.044-5.81-.737z"/><path fill="#FFC3C0" d="m1027.813 757.675-2.619 5.894-1.495 3.378-.622-3.646-1.065-6.362z"/><path fill="#326AB3" d="m1043.879 627.833-5.003-.635a1.138 1.138 0 0 1-.986-1.273l.7-5.513a3.66 3.66 0 0 1 4.091-3.171 3.661 3.661 0 0 1 3.171 4.092l-.699 5.513a1.14 1.14 0 0 1-1.274.987zM1043.883 630.566l-5.692-.722a.786.786 0 1 1 .198-1.56l5.692.721a.787.787 0 0 1-.198 1.561zM1043.576 632.986l-5.692-.722a.787.787 0 0 1 .198-1.56l5.692.722a.786.786 0 0 1-.198 1.56z"/><path fill="#4D4D4D" d="m1025.194 763.569-1.495 3.378-.622-3.646z"/><path fill="#326AB3" d="M915.601 653.034h74.123v116.25h-74.123z"/><path fill="#326AB3" d="M989.718 698.58h57.308v70.704h-57.308zM912.897 649.78h79.517v15.399h-79.517z"/><path fill="#326AB3" d="M989.718 695.76h59.954v15.399h-59.954z"/><path fill="#CCC" d="M1047.017 711.159v58.125c-4.58-30.572-18.513-51.966-57.292-49.016v49.016c-1.406-20.179-29.427-96.332-74.123-97.164v-6.94h74.123v45.979h57.292z"/><circle cx="1134.234" cy="516.568" r="43.262" fill="#69B0FF"/><path fill="#69B0FF" d="M1118.577 463.529c-7.039 1.578-13.711 4.933-19.149 9.68-5.461 4.768-9.597 10.96-12.145 17.734-.712 1.892-1.36 3.863-1.741 5.851-.375 1.953-.584 3.983-.726 5.965-.034.48.779.6.85.115.501-3.426 1.513-6.811 2.77-10.035a41.727 41.727 0 0 1 4.984-9.172c3.967-5.52 9.352-10.051 15.389-13.155 3.361-1.728 6.957-2.986 10.65-3.783 2.084-.45 1.204-3.668-.882-3.2zM1134.569 460.948a23.561 23.561 0 0 0-3.137.305c-.974.162-1.962.328-2.88.697-.916.368-1.78.829-2.681 1.224-.478.21-.251 1.077.273 1.008.884-.116 1.808-.089 2.699-.083.952.007 1.898-.103 2.85-.129a69.074 69.074 0 0 1 2.769-.029c.956.014 1.926.167 2.878.144.76-.018 1.42-.571 1.511-1.335.083-.699-.339-1.551-1.102-1.688-1.037-.186-2.129-.148-3.18-.114z"/><path fill="#FFF" d="m1101.339 526.619-5.101-20.102h2.744l2.386 10.171c.596 2.505 1.134 5.01 1.491 6.949h.059c.329-1.999.954-4.385 1.641-6.98l2.685-10.14h2.714l2.446 10.2c.567 2.386 1.104 4.772 1.402 6.89h.06c.418-2.206.984-4.444 1.61-6.949l2.654-10.14h2.654l-5.696 20.102h-2.714l-2.535-10.468c-.626-2.566-1.044-4.534-1.313-6.562h-.059c-.358 1.997-.805 3.967-1.551 6.562l-2.863 10.468h-2.714zM1127.062 526.619l-5.101-20.102h2.744l2.386 10.171c.596 2.505 1.134 5.01 1.491 6.949h.059c.329-1.999.954-4.385 1.641-6.98l2.685-10.14h2.714l2.446 10.2c.567 2.386 1.104 4.772 1.402 6.89h.06c.418-2.206.984-4.444 1.61-6.949l2.654-10.14h2.654l-5.696 20.102h-2.714l-2.535-10.468c-.627-2.566-1.044-4.534-1.313-6.562h-.059c-.358 1.997-.805 3.967-1.551 6.562l-2.863 10.468h-2.714zM1152.785 526.619l-5.101-20.102h2.744l2.386 10.171c.596 2.505 1.134 5.01 1.491 6.949h.059c.329-1.999.954-4.385 1.641-6.98l2.685-10.14h2.714l2.446 10.2c.567 2.386 1.104 4.772 1.402 6.89h.06c.418-2.206.984-4.444 1.61-6.949l2.654-10.14h2.654l-5.696 20.102h-2.714l-2.535-10.468c-.627-2.566-1.044-4.534-1.313-6.562h-.059c-.358 1.997-.805 3.967-1.551 6.562l-2.863 10.468h-2.714z"/><circle cx="926.628" cy="414.721" r="46.199" fill="#FFC661"/><path fill="#FFC661" d="M909.162 359.196c-7.516 1.685-14.642 5.268-20.449 10.338-5.832 5.092-10.249 11.704-12.97 18.938-.76 2.02-1.452 4.125-1.86 6.248-.4 2.086-.624 4.253-.775 6.37-.037.512.832.641.908.123.535-3.659 1.615-7.273 2.958-10.717a44.608 44.608 0 0 1 5.322-9.794c4.236-5.894 9.987-10.734 16.434-14.049 3.589-1.846 7.43-3.189 11.374-4.04 2.225-.48 1.286-3.917-.942-3.417zM926.24 356.439a25.245 25.245 0 0 0-3.35.326c-1.04.173-2.096.351-3.076.744-.979.393-1.9.885-2.863 1.307-.51.224-.268 1.15.292 1.077.944-.124 1.931-.095 2.882-.089 1.016.007 2.027-.11 3.044-.137a72.885 72.885 0 0 1 2.957-.031c1.021.015 2.056.179 3.073.154.812-.02 1.517-.609 1.614-1.425.089-.746-.362-1.656-1.177-1.803-1.107-.199-2.274-.159-3.396-.123z"/><path fill="#FFF" d="M908.865 426.418c-1.188.594-3.565 1.188-6.609 1.188-7.055 0-12.366-4.457-12.366-12.662 0-7.835 5.311-13.144 13.07-13.144 3.119 0 5.087.668 5.941 1.114l-.78 2.636c-1.224-.596-2.971-1.04-5.049-1.04-5.867 0-9.766 3.751-9.766 10.322 0 6.127 3.527 10.064 9.618 10.064 1.967 0 3.973-.41 5.273-1.04l.668 2.562zM912.478 423.298c1.448.892 3.565 1.634 5.793 1.634 3.305 0 5.235-1.745 5.235-4.271 0-2.339-1.336-3.675-4.715-4.975-4.085-1.448-6.611-3.565-6.611-7.091 0-3.899 3.231-6.795 8.095-6.795 2.562 0 4.419.594 5.533 1.224l-.892 2.636a9.957 9.957 0 0 0-4.753-1.188c-3.415 0-4.715 2.042-4.715 3.751 0 2.339 1.522 3.491 4.975 4.827 4.234 1.634 6.387 3.677 6.387 7.352 0 3.862-2.859 7.205-8.763 7.205-2.413 0-5.049-.706-6.386-1.598l.817-2.711zM930.794 423.298c1.448.892 3.565 1.634 5.793 1.634 3.305 0 5.235-1.745 5.235-4.271 0-2.339-1.336-3.675-4.715-4.975-4.085-1.448-6.611-3.565-6.611-7.091 0-3.899 3.231-6.795 8.095-6.795 2.562 0 4.419.594 5.533 1.224l-.892 2.636a9.957 9.957 0 0 0-4.753-1.188c-3.415 0-4.715 2.042-4.715 3.751 0 2.339 1.522 3.491 4.975 4.827 4.234 1.634 6.387 3.677 6.387 7.352 0 3.862-2.859 7.205-8.763 7.205-2.413 0-5.049-.706-6.385-1.598l.816-2.711zM949.182 423.484c.928.594 3.082 1.522 5.347 1.522 4.197 0 5.495-2.673 5.459-4.679-.038-3.379-3.082-4.827-6.239-4.827h-1.819v-2.451h1.819c2.376 0 5.385-1.224 5.385-4.085 0-1.93-1.226-3.639-4.233-3.639-1.932 0-3.788.854-4.827 1.596l-.854-2.376c1.262-.928 3.713-1.856 6.311-1.856 4.753 0 6.907 2.822 6.907 5.755 0 2.488-1.486 4.605-4.457 5.681v.076c2.971.594 5.385 2.821 5.385 6.2 0 3.862-3.008 7.241-8.8 7.241-2.711 0-5.087-.854-6.275-1.634l.891-2.524z"/><circle cx="872.946" cy="231.714" r="46.662" fill="#69B0FF"/><path fill="#69B0FF" d="M829.172 188.844c-5.792 5.194-10.304 11.869-12.919 19.201-2.627 7.365-3.256 15.372-2.084 23.089.327 2.155.756 4.352 1.445 6.424.677 2.036 1.55 4.056 2.461 5.996.22.469 1.049.154.861-.34-1.334-3.489-2.166-7.207-2.682-10.904a45.028 45.028 0 0 1-.143-11.258c.824-7.285 3.504-14.388 7.549-20.49 2.252-3.398 4.973-6.477 8.029-9.173 1.723-1.52-.801-4.085-2.517-2.545zM842.861 177.987a25.452 25.452 0 0 0-2.791 1.94c-.831.665-1.674 1.343-2.343 2.174-.668.829-1.238 1.718-1.878 2.565-.339.449.331 1.146.788.805.771-.575 1.654-1.037 2.496-1.5.899-.495 1.732-1.098 2.615-1.623a74.487 74.487 0 0 1 2.591-1.487c.907-.491 1.9-.858 2.784-1.381.706-.418 1.036-1.286.719-2.052-.29-.702-1.136-1.281-1.927-1.008-1.075.37-2.083.982-3.054 1.567z"/><path fill="#FFF" d="m852.075 246.34-3.732-6.467c-1.52-2.474-2.474-4.08-3.385-5.772h-.087c-.825 1.693-1.648 3.256-3.168 5.816l-3.516 6.423h-4.339l8.94-14.799-8.592-14.451h4.382l3.862 6.857c1.085 1.91 1.91 3.385 2.691 4.947h.131c.825-1.737 1.562-3.081 2.647-4.947l3.993-6.857h4.339l-8.896 14.234 9.113 15.017h-4.383zM885.506 233.493c-.217-4.078-.477-8.983-.433-12.628h-.131c-.998 3.428-2.214 7.073-3.689 11.11l-5.165 14.191h-2.864l-4.73-13.932c-1.389-4.122-2.56-7.898-3.385-11.37h-.087c-.087 3.645-.304 8.55-.565 12.932l-.781 12.543h-3.601l2.039-29.25h4.818l4.99 14.147c1.216 3.603 2.214 6.815 2.951 9.852h.131c.739-2.951 1.779-6.163 3.081-9.852l5.209-14.147h4.816l1.823 29.25h-3.689l-.738-12.846zM895.768 217.089h3.776v26.082h12.499v3.168h-16.275v-29.25z"/><circle cx="303.778" cy="532.688" r="48.098" fill="#69B0FF"/><path fill="#69B0FF" d="M354.871 497.357c5.262 6.052 9.024 13.455 10.763 21.289 1.747 7.869 1.368 16.139-.815 23.883-.61 2.163-1.329 4.355-2.297 6.386-.952 1.996-2.103 3.951-3.282 5.819-.285.452-1.093.024-.837-.457 1.81-3.398 3.135-7.095 4.135-10.811a46.411 46.411 0 0 0 1.583-11.497c.087-7.557-1.748-15.164-5.107-21.922-1.87-3.763-4.26-7.26-7.042-10.407-1.569-1.775 1.34-4.076 2.899-2.283zM342.255 484.505c.923.725 1.789 1.5 2.608 2.341.765.787 1.541 1.587 2.119 2.523.578.934 1.047 1.915 1.594 2.863.29.503-.485 1.13-.909.723-.715-.687-1.56-1.272-2.362-1.853-.857-.621-1.632-1.344-2.467-1.994a76.318 76.318 0 0 0-2.46-1.851c-.865-.618-1.834-1.12-2.672-1.768-.669-.517-.896-1.447-.473-2.191.386-.681 1.326-1.165 2.1-.785 1.05.515 2.003 1.27 2.922 1.992z"/><path fill="#FFF" d="M271.08 518.652h3.565v18.483c0 7.334-3.605 9.588-8.359 9.588-1.311 0-2.91-.287-3.812-.656l.534-2.91c.737.287 1.802.534 2.991.534 3.197 0 5.08-1.435 5.08-6.844v-18.195zM285.063 537.585l-2.868 8.687h-3.689l9.385-27.62h4.303l9.425 27.62h-3.811l-2.951-8.687h-9.794zm9.056-2.788-2.704-7.95c-.614-1.802-1.024-3.442-1.433-5.04h-.083a81.888 81.888 0 0 1-1.393 5l-2.704 7.99h8.317zM309.582 546.273l-9.016-27.62h3.852l4.303 13.606c1.188 3.729 2.214 7.089 2.951 10.326h.082c.777-3.195 1.925-6.679 3.155-10.286l4.672-13.646h3.812l-9.877 27.62h-3.934zM328.526 537.585l-2.868 8.687h-3.689l9.385-27.62h4.303l9.425 27.62h-3.811l-2.95-8.687h-9.795zm9.057-2.788-2.704-7.95c-.614-1.802-1.024-3.442-1.433-5.04h-.083a81.888 81.888 0 0 1-1.393 5l-2.704 7.99h8.317z"/><circle cx="536.578" cy="218.876" r="51.455" fill="#FFC661"/><path fill="#FFC661" d="M555.081 157.575c8.372 1.877 16.308 5.868 22.775 11.514 6.495 5.671 11.415 13.036 14.445 21.092.846 2.25 1.617 4.594 2.071 6.959.446 2.323.695 4.737.863 7.095.041.57-.927.714-1.011.137-.596-4.075-1.799-8.101-3.295-11.936a49.67 49.67 0 0 0-5.928-10.909c-4.718-6.565-11.124-11.955-18.303-15.647-3.998-2.056-8.275-3.552-12.668-4.499-2.476-.535-1.43-4.362 1.051-3.806zM536.06 154.505c1.255.04 2.493.157 3.731.363 1.158.192 2.334.39 3.426.829 1.09.438 2.117.986 3.189 1.456.568.249.298 1.281-.325 1.199-1.051-.138-2.151-.106-3.21-.099-1.132.008-2.258-.123-3.39-.153a82.203 82.203 0 0 0-3.294-.035c-1.137.016-2.29.199-3.423.172-.904-.022-1.689-.679-1.798-1.587-.099-.831.403-1.845 1.311-2.008 1.234-.222 2.534-.177 3.783-.137z"/><path fill="#FFF" d="M499.054 207.14v9.82h11.352v-9.82h3.065v23.471h-3.065v-11.005h-11.352v11.005h-3.03V207.14h3.03zM523.199 209.718h-7.14v-2.578h17.378v2.578h-7.174v20.894h-3.064v-20.894zM555.839 220.303c-.174-3.272-.383-7.208-.347-10.133h-.105c-.801 2.751-1.776 5.675-2.96 8.915l-4.144 11.388h-2.298l-3.795-11.179c-1.114-3.308-2.054-6.337-2.716-9.123h-.069a312.07 312.07 0 0 1-.454 10.377l-.627 10.065h-2.889l1.636-23.471h3.866l4.004 11.352c.975 2.891 1.776 5.468 2.368 7.906h.105c.593-2.368 1.428-4.945 2.473-7.906l4.18-11.352h3.865l1.463 23.471h-2.96l-.596-10.31zM564.072 207.14h3.03v20.929h10.029v2.542h-13.059V207.14z"/><path fill="#C8CBE3" d="M1264.117 773.965H150.171a2.32 2.32 0 0 1-2.321-2.321v-.016a2.32 2.32 0 0 1 2.321-2.321h1113.947a2.32 2.32 0 0 1 2.321 2.321v.016a2.322 2.322 0 0 1-2.322 2.321zM42.345 773.933h84.22a2.305 2.305 0 0 0 2.305-2.305v-.016a2.305 2.305 0 0 0-2.305-2.305h-84.22a2.305 2.305 0 0 0-2.305 2.305v.016a2.305 2.305 0 0 0 2.305 2.305zM1294.995 773.933h26.659a2.305 2.305 0 0 0 2.305-2.305v-.016a2.305 2.305 0 0 0-2.305-2.305h-26.659a2.305 2.305 0 0 0-2.305 2.305v.016a2.305 2.305 0 0 0 2.305 2.305zM278.566 805.528h195.375a2.305 2.305 0 0 0 2.305-2.305v-.016a2.305 2.305 0 0 0-2.305-2.305H278.566a2.305 2.305 0 0 0-2.305 2.305v.016a2.305 2.305 0 0 0 2.305 2.305zM489.364 805.224h26.659a2.305 2.305 0 0 0 2.305-2.305v-.016a2.305 2.305 0 0 0-2.305-2.305h-26.659a2.305 2.305 0 0 0-2.305 2.305v.016a2.305 2.305 0 0 0 2.305 2.305z"/><path fill="#E8586B" d="M984.326 289.524c.307.496.405 1.094.261 1.683a2.194 2.194 0 0 1-1.53 1.6l-7.417 2.163a2.192 2.192 0 0 1-2.15-.526 2.194 2.194 0 0 1-.62-2.125l1.835-7.504a2.189 2.189 0 0 1 1.531-1.599 2.192 2.192 0 0 1 2.15.526l5.581 5.341c.141.134.261.282.359.441zm-9.706 3.564a.46.46 0 0 0 .532.207l7.416-2.163a.462.462 0 0 0 .324-.339.458.458 0 0 0-.131-.449l-5.582-5.341a.459.459 0 0 0-.455-.111.46.46 0 0 0-.324.338l-1.835 7.504a.457.457 0 0 0 .055.354zM137.275 679.37c.307.496.405 1.094.261 1.683a2.194 2.194 0 0 1-1.53 1.6l-7.417 2.163a2.192 2.192 0 0 1-2.15-.526 2.194 2.194 0 0 1-.62-2.125l1.835-7.504a2.189 2.189 0 0 1 1.531-1.599 2.192 2.192 0 0 1 2.15.526l5.581 5.341c.141.134.261.282.359.441zm-9.706 3.564a.46.46 0 0 0 .532.207l7.416-2.163a.462.462 0 0 0 .324-.339.458.458 0 0 0-.131-.449l-5.582-5.341a.459.459 0 0 0-.455-.111.46.46 0 0 0-.324.338l-1.835 7.504a.457.457 0 0 0 .055.354z"/><path fill="#FFAC40" d="m1208.418 621.898 3.552-3.552a2.065 2.065 0 0 0-2.919-2.92l-3.552 3.552-3.552-3.552a2.065 2.065 0 0 0-2.92 2.92l3.552 3.552-3.545 3.545a2.064 2.064 0 0 0 1.46 3.525 2.06 2.06 0 0 0 1.46-.605l3.546-3.546 3.546 3.546a2.06 2.06 0 0 0 1.46.605 2.064 2.064 0 0 0 1.46-3.525l-3.548-3.545zM687.509 225.905l3.552-3.552a2.065 2.065 0 0 0-2.919-2.92l-3.552 3.552-3.552-3.552a2.064 2.064 0 1 0-2.919 2.92l3.552 3.552-3.545 3.545a2.064 2.064 0 0 0 1.46 3.525 2.06 2.06 0 0 0 1.46-.605l3.546-3.546 3.546 3.546a2.06 2.06 0 0 0 1.46.605 2.064 2.064 0 0 0 1.46-3.525l-3.549-3.545zM217.61 458.652l3.552-3.552a2.065 2.065 0 0 0-2.919-2.92l-3.552 3.552-3.552-3.552a2.065 2.065 0 0 0-2.92 2.92l3.552 3.552-3.545 3.545a2.064 2.064 0 0 0 1.46 3.525 2.06 2.06 0 0 0 1.46-.605l3.546-3.546 3.546 3.546a2.06 2.06 0 0 0 1.46.605 2.064 2.064 0 0 0 1.46-3.525l-3.548-3.545z"/><path fill="#3C3987" d="M968.399 515.645a6.238 6.238 0 0 1-6.231-6.231 6.238 6.238 0 0 1 6.231-6.231 6.238 6.238 0 0 1 6.231 6.231 6.238 6.238 0 0 1-6.231 6.231zm0-10.512a4.287 4.287 0 0 0-4.281 4.281 4.287 4.287 0 0 0 4.281 4.281 4.287 4.287 0 0 0 4.281-4.281 4.285 4.285 0 0 0-4.281-4.281zM434.023 580.24a6.238 6.238 0 0 1-6.231-6.231 6.238 6.238 0 0 1 6.231-6.231 6.238 6.238 0 0 1 6.231 6.231 6.238 6.238 0 0 1-6.231 6.231zm0-10.512a4.287 4.287 0 0 0-4.281 4.281 4.287 4.287 0 0 0 4.281 4.281 4.287 4.287 0 0 0 4.281-4.281c0-2.36-1.92-4.281-4.281-4.281z"/></svg>