<svg xmlns="http://www.w3.org/2000/svg" viewBox="0 0 99 99"><path fill="#fff" d="M69.412 23.17v68.985H5.884v-81.56a3.75 3.75 0 0 1 3.751-3.75h41.96V23.17h17.817z"/><path fill="#d8eaf8" d="M69.412 23.17v68.985H5.884v-8.177H34.8c14.6 0 26.436-11.836 26.436-26.436V23.17h8.177z"/><path fill="#f26c6d" d="M69.412 23.17H51.596V6.845z"/><path fill="#72dbd4" d="m78.478 48.824 8.945-.044.16 32.213-8.944.045z"/><path fill="#6cc6c6" d="m83.57 48.795 3.85-.019.162 32.217-3.85.019z"/><path fill="#f7c737" d="m88.405 17.863.155 30.912-11.219.056-.154-30.912a2.602 2.602 0 0 1 2.589-2.615l6.014-.03a2.602 2.602 0 0 1 2.615 2.589z"/><path fill="#e5ac20" d="m88.408 17.863.155 30.908-4.48.022-.155-30.907a2.597 2.597 0 0 0-2.612-2.587l4.47-.022a2.605 2.605 0 0 1 2.622 2.586z"/><path fill="#ffe268" d="M82.074 15.296a2.597 2.597 0 0 0-2.586 2.612l.154 30.907-2.304.012-.154-30.908a2.605 2.605 0 0 1 2.596-2.612l2.294-.011z"/><path fill="#72dbd4" d="M82.752 9.184c-1.685.008-3.046 1.206-3.039 2.675l.017 3.445 6.105-.03-.017-3.445c-.007-1.47-1.38-2.653-3.066-2.645z"/><path fill="#6cc6c6" d="m85.818 11.83.017 3.447-2.343.011-.017-3.446c.004-1.112-.778-2.054-1.893-2.442.354-.14.757-.21 1.17-.213 1.684-.008 3.059 1.176 3.066 2.644z"/><path fill="#c7f1ed" d="M83.61 9.291c-1.259.332-2.18 1.36-2.173 2.561l.017 3.447-1.723.008-.017-3.446c-.008-1.467 1.355-2.665 3.039-2.674.295-.001.58.037.857.104z"/><path fill="#fff" d="m87.584 80.993-4.417 11.162-4.528-11.117z"/><path fill="#215" d="M61.235 83.155H14.061a1 1 0 1 0 0 2h47.174a1 1 0 1 0 0-2zm0-13.863H14.061a1 1 0 1 0 0 2h47.174a1 1 0 1 0 0-2zm-47.174-11.86h34.662a1 1 0 1 0 0-2H14.06a1 1 0 1 0 0 2zm45.122 0a1 1 0 1 0 0-2h-4.891a1 1 0 1 0 0 2h4.89zm2.052-15.863H14.061a1 1 0 1 0 0 2h47.174a1 1 0 1 0 0-2zM14.061 29.708h6.943a1 1 0 1 0 0-2H14.06a1 1 0 1 0 0 2zm12.58-1a1 1 0 0 0 1 1h33.594a1 1 0 1 0 0-2H27.642a1 1 0 0 0-1 1zm-12.58-12.863h28.863a1 1 0 1 0 0-2H14.06a1 1 0 1 0 0 2z"/><path fill="#215" d="M70.102 22.452c-.127-.122-17.73-16.255-17.83-16.344a1.107 1.107 0 0 0-.676-.263H9.635c-2.62 0-4.75 2.131-4.75 4.751v81.559a1 1 0 0 0 1 1H69.41a1 1 0 0 0 1-1V23.17c0-.25-.144-.56-.309-.718zM52.596 9.118 66.84 22.17H52.596V9.118zM68.41 91.155H6.885V10.596a2.754 2.754 0 0 1 2.75-2.75h40.96V23.17a1 1 0 0 0 1 1h16.816v66.985zm25.604-69.862a3.42 3.42 0 0 0-3.422-3.405h-.018l-1.17.006v-.036a3.554 3.554 0 0 0-2.574-3.419l-.013-2.615c-.01-2.012-1.824-3.64-4.047-3.64h-.024c-2.173.01-4.044 1.594-4.034 3.68l.013 2.618c-1.472.459-2.547 1.822-2.54 3.441l.155 30.912a1 1 0 0 0 1 .996h.005l.137-.001.156 31.212c0 .014.007.026.008.04.017.392-.175-.331 4.594 11.45a1 1 0 0 0 .926.623h.005a1 1 0 0 0 .925-.632c4.652-11.83 4.466-11.124 4.48-11.494 0-.014.007-.026.007-.04l-.156-31.213.136-.001a1 1 0 0 0 .996-1.005l-.145-28.876 1.17-.006h.008c.78 0 1.418.634 1.422 1.415l.1 20.019a1 1 0 0 0 1 .995h.005a1 1 0 0 0 .995-1.005l-.1-20.019zM82.758 10.184h.013c1.125 0 2.042.738 2.047 1.65l.012 2.444-4.104.02-.013-2.443c-.004-.832.816-1.665 2.045-1.67zm-2.984 6.12 6.022-.03h.009a1.6 1.6 0 0 1 1.6 1.594l.15 29.912h-.137l-9.082.046-.15-29.912c-.003-.88.709-1.601 1.588-1.61zm3.38 73.167-3.031-7.44L86.11 82l-2.957 7.47zM86.578 80l-6.945.034-.152-30.213 6.946-.034.151 30.213z"/></svg>