<svg xmlns="http://www.w3.org/2000/svg" enable-background="new 0 0 1200 800" viewBox="0 0 1200 800"><path fill="#74d4b9" d="M257.409 460.052h-36.821v38.309H196.04V368.184c20.457 0 40.913-.186 61.369-.186 63.601 0 63.788 92.054 0 92.054zm-36.821-22.502h36.821c31.429 0 31.243-46.12 0-46.12h-36.821v46.12z"/><path fill="#fc9e67" d="M437.239 498.361h-29.196l-37.937-43.516h-23.618v43.516H321.94V367.998c20.643 0 41.285.186 61.928.186 30.684.186 46.863 20.642 46.863 43.145 0 17.854-8.182 35.893-32.916 40.912l39.424 44.447v1.673zm-90.752-107.303v41.658h37.38c15.621 0 22.316-10.415 22.316-20.829 0-10.413-6.881-20.829-22.316-20.829h-37.38z"/><path fill="#74d4b9" d="M575.224 434.018c-.372 33.658-21.014 67.318-66.762 67.318-45.748 0-66.948-32.916-66.948-67.135 0-34.218 21.944-68.621 66.948-68.621 44.819.001 67.135 34.404 66.762 68.438zm-109.534.555c.558 21.388 12.088 44.262 42.772 44.262 30.685 0 42.214-23.061 42.586-44.445.372-21.946-11.901-46.493-42.586-46.493-30.684 0-43.33 24.733-42.772 46.676z"/><path fill="#b8d1cd" d="M702.423 442.757c0 33.659-21.386 58.207-57.276 58.207-33.289 0-57.093-19.898-57.093-56.721h24.175c0 22.318 10.787 33.661 32.917 33.661 22.315 0 32.729-15.435 32.729-35.147v-51.7h-39.239v-22.874h63.786v74.574z"/><path fill="#74d4b9" d="M822.558 498.361h-97.446V368.184h97.446v23.803h-73.084v29.942h70.479v22.873h-70.479v29.384h73.084v24.175z"/><path fill="#b8d1cd" d="M956.265 481.996c-13.387 13.203-30.682 19.341-49.464 19.341-48.354 0-68.809-33.288-68.996-67.135-.185-34.031 21.946-68.621 68.996-68.621 17.666 0 34.402 6.694 47.793 19.899l-16.367 15.807c-8.552-8.368-20.084-12.272-31.426-12.272-31.43 0-45.005 23.43-44.82 45.189.188 21.572 12.648 44.075 44.82 44.075 11.342 0 24.173-4.65 32.729-13.205l16.735 16.922z"/><path fill="#74d4b9" d="M1014.476 390.5h-41.284v-22.316h107.115V390.5h-41.283v107.861h-24.548V390.5z"/><path fill="#111416" d="M255.716 392.931h1.694c3.544 0 6.797.625 9.667 1.859a1.499 1.499 0 1 0 1.184-2.756c-3.246-1.396-6.897-2.103-10.852-2.103h-1.694a1.5 1.5 0 1 0 .001 3zm47.985 33.259a1.5 1.5 0 0 0-1.855 1.027c-5.63 19.621-22.242 31.335-44.437 31.335h-5.345a1.5 1.5 0 1 0 0 3h5.345c23.61 0 41.3-12.526 47.32-33.507a1.499 1.499 0 0 0-1.028-1.855zm1.672-23.607a1.5 1.5 0 0 0-2.923.677 47.993 47.993 0 0 1 1.187 12.846 1.5 1.5 0 1 0 2.997.127 51.01 51.01 0 0 0-1.261-13.65zm-77.11 94.278h-6.175v-28.177a1.5 1.5 0 1 0-3 0v28.177h-23.047a1.5 1.5 0 1 0 0 3h23.047v6.508a1.5 1.5 0 1 0 3 0v-6.508h6.175a1.5 1.5 0 1 0 0-3zm16.873-106.93h-23.048v-5.48a1.5 1.5 0 1 0-3 0v5.48h-6.175a1.5 1.5 0 1 0 0 3h6.175v16.677a1.5 1.5 0 1 0 3 0v-16.677h23.048a1.5 1.5 0 1 0 0-3zM997.018 366.684h-22.326v-5.479a1.5 1.5 0 1 0-3 0v5.479h-6.176a1.5 1.5 0 1 0 0 3h6.176v11.849a1.5 1.5 0 1 0 3 0v-11.849h22.326a1.5 1.5 0 1 0 0-3zm90.966-.001h-6.177v-5.478a1.5 1.5 0 1 0-3 0v5.478h-50.626a1.5 1.5 0 1 0 0 3h50.626V390.5a1.5 1.5 0 1 0 3 0v-20.817h6.177a1.5 1.5 0 1 0 0-3zM776.94 446.301h41.514v6.177a1.5 1.5 0 0 0 3 0v-6.177h5.481a1.5 1.5 0 0 0 0-3h-5.481v-21.372a1.5 1.5 0 0 0-3 0v21.372H776.94a1.5 1.5 0 0 0 0 3zm-9.413-2.999h-10.063a1.5 1.5 0 0 0 0 3h10.063a1.5 1.5 0 0 0 0-3zm62.012 53.559h-5.48V485.24a1.5 1.5 0 0 0-3 0v11.621H789.35a1.5 1.5 0 0 0 0 3h31.708v6.176a1.5 1.5 0 0 0 3 0v-6.176h5.48a1.5 1.5 0 0 0 .001-3zm-49.947.001h-8.089a1.5 1.5 0 0 0 0 3h8.089a1.5 1.5 0 0 0 0-3zM371.035 431.215h-23.048v-16.679a1.5 1.5 0 1 0-3 0v16.679h-6.175a1.5 1.5 0 1 0 0 3h6.175v5.478a1.5 1.5 0 1 0 3 0v-5.478h23.048a1.5 1.5 0 1 0 0-3zm29.574 21.917c3.209-.815 6.384-1.91 8.987-3.124a1.5 1.5 0 1 0-1.267-2.719c-2.85 1.328-6.443 2.511-9.978 3.297l-3.875-4.368a1.5 1.5 0 1 0-2.244 1.99l2.679 3.02a99.799 99.799 0 0 1-5.909.705 1.5 1.5 0 1 0 .249 2.99c.188-.017 4.328-.366 8.009-1.047l16.355 18.437a1.5 1.5 0 0 0 2.245-1.99l-15.251-17.191zm-16.733-86.448-18.038-.038a1.5 1.5 0 1 0-.01 3l18.04.038c15.372.093 27.846 5.337 36.064 15.167a1.5 1.5 0 0 0 2.302-1.925c-6.14-7.341-17.777-16.118-38.358-16.242zm46.114 30.315a43.378 43.378 0 0 0-2.604-6.277 1.5 1.5 0 1 0-2.671 1.366h-.001a40.253 40.253 0 0 1 2.423 5.841 1.5 1.5 0 1 0 2.853-.93zm-41.411 35.412a1.5 1.5 0 0 0-1.642-1.344c-.99.099-2.023.148-3.071.148h-3.587a1.5 1.5 0 1 0 0 3h3.587c1.146 0 2.28-.055 3.369-.164a1.499 1.499 0 0 0 1.344-1.64zM472.441 490.793a56.563 56.563 0 0 1-9.08-6.712 1.5 1.5 0 1 0-2.017 2.221 59.509 59.509 0 0 0 9.562 7.069 1.5 1.5 0 0 0 1.535-2.578zm11.714-121.358a1.5 1.5 0 0 0-1.93-.881c-9.776 3.646-18.18 9.438-24.978 17.212a1.501 1.501 0 0 0 2.259 1.975c6.466-7.395 14.463-12.905 23.768-16.376a1.5 1.5 0 0 0 .881-1.93zM456.816 477.03c-8.9-11.375-13.801-26.585-13.801-42.828 0-14.185 3.917-28.101 11.03-39.184a1.499 1.499 0 1 0-2.524-1.62c-7.42 11.561-11.506 26.052-11.506 40.804 0 16.91 5.128 32.776 14.439 44.677a1.5 1.5 0 0 0 2.362-1.849zM710.099 366.684h-6.176v-5.479a1.5 1.5 0 1 0-3 0v5.479h-37.268a1.5 1.5 0 1 0 0 3h37.268v11.849a1.5 1.5 0 1 0 3 0v-11.849h6.176a1.5 1.5 0 1 0 0-3zm-24.548 22.874h-6.175v-5.48a1.5 1.5 0 1 0-3 0v5.48h-16.494a1.5 1.5 0 1 0 0 3h16.494v34.578a1.5 1.5 0 0 0 3 0v-34.578h6.175a1.5 1.5 0 1 0 0-3zm-18.819 106.39c-6.538 2.334-13.8 3.517-21.585 3.517-15.456 0-28.722-4.38-38.364-12.666a1.5 1.5 0 0 0-1.955 2.275c10.193 8.76 24.135 13.391 40.319 13.391 8.13 0 15.73-1.242 22.593-3.69a1.5 1.5 0 0 0-1.008-2.827zm15.371-8.701a48.879 48.879 0 0 1-7.553 5.173 1.5 1.5 0 1 0 1.457 2.623 52.1 52.1 0 0 0 8.018-5.491 1.5 1.5 0 0 0-1.922-2.305zm-2.726-44.49v-9.454a1.5 1.5 0 0 0-3 0v9.454a1.5 1.5 0 0 0 3 0zM871.153 460.268c-4.933-7.136-7.586-16.153-7.672-26.079-.045-5.313.736-10.503 2.321-15.424a1.501 1.501 0 0 0-2.856-.92c-1.684 5.227-2.513 10.733-2.466 16.369.092 10.529 2.929 20.128 8.205 27.76a1.5 1.5 0 0 0 2.468-1.706zm-26.238-58.525a1.5 1.5 0 0 0-1.986.744 72.153 72.153 0 0 0-3.746 10.261 1.5 1.5 0 1 0 2.887.815 69.194 69.194 0 0 1 3.59-9.833 1.502 1.502 0 0 0-.745-1.987zm111.82-16.244 4.51-4.355a1.5 1.5 0 0 0-2.084-2.158l-4.579 4.422c-13.314-12.641-29.795-19.327-47.78-19.327-25.346 0-46.15 10.257-58.583 28.88a1.502 1.502 0 0 0 2.496 1.666c8.388-12.566 24.928-27.546 56.087-27.546 17.16 0 32.896 6.372 45.621 18.412l-11.199 10.815a1.5 1.5 0 0 0 2.084 2.158l11.269-10.883 4.318 4.318a1.5 1.5 0 1 0 2.121-2.121l-4.281-4.281zm-76.745 9.373c-5.75 3.781-10.374 8.888-13.744 15.178a1.5 1.5 0 1 0 2.644 1.416c3.132-5.844 7.421-10.583 12.748-14.087a1.5 1.5 0 0 0-1.648-2.507z"/><ellipse cx="131.738" cy="516.363" fill="#fc9e67" rx="22.428" ry="22.427" transform="rotate(-.81 131.856 517.765)"/><path fill="#111416" d="M131.738 514.863h-4.959v-4.959a1.5 1.5 0 1 0-3 0v4.959h-4.959a1.5 1.5 0 1 0 0 3h4.959v4.959a1.5 1.5 0 1 0 3 0v-4.959h4.959a1.5 1.5 0 1 0 0-3zm10.312-11.58a1.5 1.5 0 0 0-1.635.325l-5.774 5.773a1.5 1.5 0 1 0 2.121 2.121l3.213-3.213v18.985a1.5 1.5 0 1 0 3 0v-22.607c0-.605-.365-1.152-.925-1.384zM196.041 496.861h-84.47c-6.971 0-12.642-3.877-12.642-8.643 0-2.213 1.248-4.327 3.516-5.953 2.419-1.734 5.66-2.689 9.126-2.689a1.503 1.503 0 0 0 1.5-1.5v-76.404h82.97a1.5 1.5 0 1 0 0-3h-82.97v-18.785a1.5 1.5 0 0 0-1.5-1.5c-4.088 0-7.95 1.155-10.874 3.252-3.075 2.205-4.768 5.185-4.768 8.391v98.189c0 6.42 7.017 11.643 15.642 11.643h84.47a1.5 1.5 0 1 0 0-3.001zM98.929 390.029c0-4.418 4.877-8.066 11.142-8.576v95.176c-3.526.247-6.811 1.361-9.374 3.199-.658.472-1.239.986-1.768 1.523v-91.322z"/><path fill="#74d4b9" d="M196.04 423.624a1.5 1.5 0 1 0 0-3h-4.969v-6h4.969a1.5 1.5 0 1 0 0-3h-4.969v-1.75a1.5 1.5 0 1 0-3 0v1.75h-6v-1.75a1.5 1.5 0 1 0-3 0v1.75h-6v-1.75a1.5 1.5 0 1 0-3 0v1.75h-6v-1.75a1.5 1.5 0 1 0-3 0v1.75h-6v-1.75a1.5 1.5 0 1 0-3 0v1.75h-6v-1.75a1.5 1.5 0 1 0-3 0v1.75h-6v-1.75a1.5 1.5 0 1 0-3 0v1.75h-2.667a1.5 1.5 0 1 0 0 3h2.667v6h-2.667a1.5 1.5 0 1 0 0 3h2.667v6h-2.667a1.5 1.5 0 1 0 0 3h2.667v6h-2.667a1.5 1.5 0 1 0 0 3h2.667v6h-2.667a1.5 1.5 0 1 0 0 3h2.667v6h-2.667a1.5 1.5 0 1 0 0 3h2.667v6h-2.667a1.5 1.5 0 1 0 0 3h2.667v6h-2.667a1.5 1.5 0 1 0 0 3h2.667v6h-2.667a1.5 1.5 0 1 0 0 3h2.667v1.75a1.5 1.5 0 1 0 3 0v-1.75h6v1.75a1.5 1.5 0 1 0 3 0v-1.75h6v1.75a1.5 1.5 0 1 0 3 0v-1.75h6v1.75a1.5 1.5 0 1 0 3 0v-1.75h6v1.75a1.5 1.5 0 1 0 3 0v-1.75h6v1.75a1.5 1.5 0 1 0 3 0v-1.75h6v1.75a1.5 1.5 0 1 0 3 0v-1.75h4.969a1.5 1.5 0 1 0 0-3h-4.969v-6h4.969a1.5 1.5 0 1 0 0-3h-4.969v-6h4.969a1.5 1.5 0 1 0 0-3h-4.969v-6h4.969a1.5 1.5 0 1 0 0-3h-4.969v-6h4.969a1.5 1.5 0 1 0 0-3h-4.969v-6h4.969a1.5 1.5 0 1 0 0-3h-4.969v-6h4.969a1.5 1.5 0 1 0 0-3h-4.969v-6h4.969zm-7.969-9v6h-6v-6h6zm-9 0v6h-6v-6h6zm-18 27v6h-6v-6h6zm-6-3v-6h6v6h-6zm6 12v6h-6v-6h6zm0 9v6h-6v-6h6zm3 0h6v6h-6v-6zm0-3v-6h6v6h-6zm0-9v-6h6v6h-6zm0-9v-6h6v6h-6zm0-9v-6h6v6h-6zm-3 0h-6v-6h6v6zm-9 0h-6v-6h6v6zm0 3v6h-6v-6h6zm0 9v6h-6v-6h6zm0 9v6h-6v-6h6zm0 9v6h-6v-6h6zm0 9v6h-6v-6h6zm3 0h6v6h-6v-6zm9 0h6v6h-6v-6zm9 0h6v6h-6v-6zm0-3v-6h6v6h-6zm0-9v-6h6v6h-6zm0-9v-6h6v6h-6zm0-9v-6h6v6h-6zm0-9v-6h6v6h-6zm-3-15v6h-6v-6h6zm-9 0v6h-6v-6h6zm-9 0v6h-6v-6h6zm-15 0h6v6h-6v-6zm0 9h6v6h-6v-6zm0 9h6v6h-6v-6zm0 9h6v6h-6v-6zm0 9h6v6h-6v-6zm0 9h6v6h-6v-6zm0 9h6v6h-6v-6zm0 15v-6h6v6h-6zm9 0v-6h6v6h-6zm9 0v-6h6v6h-6zm9 0v-6h6v6h-6zm9 0v-6h6v6h-6zm15 0h-6v-6h6v6zm0-9h-6v-6h6v6zm0-9h-6v-6h6v6zm0-9h-6v-6h6v6zm0-9h-6v-6h6v6zm0-9h-6v-6h6v6zm0-9h-6v-6h6v6z"/><path fill="#b8d1cd" d="m410.486 336.878 36.502-36.504-30.928-18.239-23.814 23.813z"/><circle cx="384.609" cy="305.329" r="7.243" fill="#fc9e67" transform="rotate(-88.745 384.576 305.318)"/><path fill="#111416" d="M448.384 300.912c.063-.164.093-.332.097-.502.001-.021.003-.041.003-.062a1.496 1.496 0 0 0-.097-.5l-.022-.061a1.509 1.509 0 0 0-.296-.446c-.008-.008-.011-.02-.019-.028-.005-.005-.012-.006-.018-.012a1.57 1.57 0 0 0-.281-.22l-29.317-17.288c.372-.58.331-1.349-.176-1.855l-10.5-10.5a1.501 1.501 0 0 0-2.121 0l-3.842 3.843-5.439-5.44a1.5 1.5 0 0 0-2.121 0l-2.088 2.088a8.387 8.387 0 0 0-4.819-1.513c-4.661 0-8.454 3.792-8.454 8.454a8.38 8.38 0 0 0 1.514 4.819l-2.088 2.088a1.5 1.5 0 0 0 0 2.121l5.44 5.44-3.842 3.842a1.5 1.5 0 0 0 0 2.121l.421.421c-2.652 1.503-4.449 4.347-4.449 7.607 0 1.87.595 3.6 1.598 5.022l-50.502 50.503a8.69 8.69 0 0 0-5.023-1.599c-4.821 0-8.743 3.922-8.743 8.743 0 4.309 3.135 7.89 7.243 8.604v57.418c-4.107.714-7.243 4.296-7.243 8.603 0 4.308 3.135 7.89 7.243 8.604v18.229h-13.535a1.5 1.5 0 0 0-1.5 1.5v9.334a1.5 1.5 0 1 0 3 0v-7.834h27.069v7.834a1.5 1.5 0 1 0 3 0v-9.334a1.5 1.5 0 0 0-1.5-1.5h-13.535v-18.229c4.107-.714 7.243-4.296 7.243-8.604 0-4.307-3.135-7.889-7.243-8.603v-57.418c4.107-.714 7.243-4.296 7.243-8.604a8.68 8.68 0 0 0-1.599-5.023l50.502-50.502a8.692 8.692 0 0 0 5.023 1.599c3.424 0 6.387-1.984 7.821-4.858l16.764 28.426c.063.106.138.197.22.282.005.005.006.012.011.017.008.008.019.01.027.018.132.127.283.228.448.297l.06.021c.161.061.329.095.501.098.021.001.04-.002.062-.002.169-.004.338-.035.502-.098.021-.008.039-.019.06-.027.055-.024.111-.044.164-.076.106-.063.197-.138.282-.22.005-.005.012-.006.017-.011l12.541-12.542a8.387 8.387 0 0 0 4.821 1.515c4.661 0 8.454-3.792 8.454-8.454 0-1.75-.534-3.416-1.515-4.821l12.201-12.202c.005-.005.007-.012.012-.018.082-.084.157-.176.22-.281.031-.053.051-.108.075-.163.006-.021.016-.04.025-.061zm-15.621 11.566-.001.001-21.967 21.969-16.666-28.26 22.17-22.17 28.26 16.665-11.796 11.795zm-50.891-35.608a5.46 5.46 0 0 1 5.454-5.454c.939 0 1.831.259 2.63.702l-7.381 7.381a5.395 5.395 0 0 1-.703-2.629zm-.393 7.968 1.982-1.983.01-.007.007-.01 11.815-11.815 4.379 4.379-13.814 13.814-4.379-4.378zm1.597 11.402 3.842-3.842 15.936-15.935v-.001l3.842-3.842 8.379 8.379-22.038 22.039c-1.011-3.711-4.401-6.451-8.428-6.451a8.64 8.64 0 0 0-1.109.079l-.424-.426zm-55.394 146.384a5.749 5.749 0 0 1-5.743 5.742 5.749 5.749 0 0 1-5.743-5.742 5.749 5.749 0 0 1 5.743-5.742 5.748 5.748 0 0 1 5.743 5.742zm-5.743-68.883a5.75 5.75 0 0 1-5.743-5.743 5.75 5.75 0 0 1 5.743-5.743 5.75 5.75 0 0 1 5.743 5.743 5.75 5.75 0 0 1-5.743 5.743zm62.67-62.67c-3.167 0-5.743-2.576-5.743-5.743s2.576-5.743 5.743-5.743 5.743 2.576 5.743 5.743-2.576 5.743-5.743 5.743zm49.753 7.386a5.46 5.46 0 0 1-5.454 5.454c-.94 0-1.832-.259-2.632-.703l7.382-7.382a5.39 5.39 0 0 1 .704 2.631z"/><path fill="#fff" d="m437.981 300.934-20.876-12.311a1.5 1.5 0 1 0-1.524 2.584l20.877 12.311a1.5 1.5 0 1 0 1.523-2.584z"/><path fill="#fc9e67" d="m419.651 333.204-4.167 4.167a1.5 1.5 0 1 0 2.121 2.121l4.167-4.166a1.5 1.5 0 1 0-2.121-2.122zm13.063 4.532a1.5 1.5 0 0 0-1.5 1.5v5.892a1.5 1.5 0 1 0 3 0v-5.892a1.5 1.5 0 0 0-1.5-1.5zm13.064-4.531a1.5 1.5 0 1 0-2.121 2.121l4.167 4.167a1.5 1.5 0 1 0 2.121-2.121l-4.167-4.167zm9.803-12.442h-5.892a1.5 1.5 0 1 0 0 3h5.892a1.5 1.5 0 1 0 0-3zm-9.802-9.443 4.167-4.167a1.5 1.5 0 1 0-2.121-2.121l-4.167 4.167a1.5 1.5 0 1 0 2.121 2.121z"/><path fill="#111416" d="M457.436 497.74a1.5 1.5 0 0 0-1.365-.879H321.939a1.5 1.5 0 0 0-1.5 1.5v153.763a1.499 1.499 0 0 0 2.631.986l134.132-153.763a1.5 1.5 0 0 0 .234-1.607zM323.439 648.122v-10.998h4.382a1.5 1.5 0 1 0 0-3h-4.382v-6.25h4.382a1.5 1.5 0 1 0 0-3h-4.382v-6.25h4.382a1.5 1.5 0 1 0 0-3h-4.382v-6.25h4.382a1.5 1.5 0 1 0 0-3h-4.382v-6.25h4.382a1.5 1.5 0 1 0 0-3h-4.382v-6.25h4.382a1.5 1.5 0 1 0 0-3h-4.382v-6.25h4.382a1.5 1.5 0 1 0 0-3h-4.382v-6.25h4.382a1.5 1.5 0 1 0 0-3h-4.382v-6.25h4.382a1.5 1.5 0 1 0 0-3h-4.382v-6.25h4.382a1.5 1.5 0 1 0 0-3h-4.382v-6.25h4.382a1.5 1.5 0 1 0 0-3h-4.382v-6.25h4.382a1.5 1.5 0 1 0 0-3h-4.382v-6.25h4.382a1.5 1.5 0 1 0 0-3h-4.382v-6.25h4.382a1.5 1.5 0 1 0 0-3h-4.382v-6.25h4.382a1.5 1.5 0 1 0 0-3h-4.382v-4.763h129.333L323.439 648.122zm17.974-47.946a1.5 1.5 0 0 0 1.657-.418l42.467-48.683 27.678-31.729a1.5 1.5 0 0 0-1.131-2.486h-70.145a1.5 1.5 0 0 0-1.5 1.5v80.411c0 .626.388 1.187.974 1.405zm2.026-80.315h65.346l-25.509 29.242-39.837 45.667v-74.909zM554.15 433.561c0-12.206-4.753-23.682-13.384-32.311-8.629-8.628-20.101-13.378-32.303-13.377-11.454 0-21.928 4.246-29.955 11.234-.045.028-.093.051-.136.084-.098.075-.18.162-.254.254-9.404 8.374-15.342 20.56-15.342 34.112 0 13.553 5.937 25.739 15.34 34.114.074.093.157.181.255.256.044.033.092.057.138.085 8.027 6.988 18.501 11.234 29.954 11.234 11.465 0 21.949-4.255 29.979-11.256.037-.023.075-.041.11-.067.092-.07.171-.151.243-.237 9.411-8.374 15.355-20.565 15.355-34.125zm-16.362 30.975a38.423 38.423 0 0 0-7.755-7.067c2.697-6.599 4.282-14.243 4.457-22.408l16.623.001c-.404 11.587-5.445 22.01-13.325 29.474zm-27.825-10.684c5.809.241 11.344 1.877 16.22 4.721-3.839 8.144-9.512 14.308-16.22 17.044v-21.765zm0-3V435.06h21.526c-.174 7.488-1.64 14.578-4.101 20.734-5.252-2.997-11.196-4.704-17.425-4.942zm0-18.792v-15.794c6.23-.238 12.175-1.944 17.427-4.942 2.46 6.157 3.927 13.247 4.1 20.736h-21.527zm-.001-18.794v-21.762c6.709 2.736 12.382 8.898 16.221 17.042-4.876 2.843-10.41 4.479-16.221 4.72zm6.459-21.649a42.238 42.238 0 0 1 19.137 8.953 35.418 35.418 0 0 1-6.76 6.287c-3.101-6.47-7.336-11.741-12.377-15.24zm-9.459-.113v21.762c-5.81-.241-11.345-1.876-16.22-4.721 3.839-8.142 9.512-14.305 16.22-17.041zm-18.835 15.354a35.418 35.418 0 0 1-6.76-6.287 42.234 42.234 0 0 1 19.136-8.953c-5.041 3.499-9.275 8.77-12.376 15.24zm18.835 9.408v15.793h-21.525c.173-7.489 1.639-14.578 4.099-20.734 5.252 2.997 11.197 4.703 17.426 4.941zm.001 18.793v15.793c-6.229.238-12.175 1.944-17.426 4.941-2.46-6.156-3.926-13.246-4.1-20.734h21.526zm0 18.793v21.765c-6.709-2.736-12.382-8.9-16.221-17.044 4.876-2.845 10.41-4.48 16.221-4.721zm-6.479 21.637a42.54 42.54 0 0 1-19.104-8.958 35.475 35.475 0 0 1 6.747-6.271c3.097 6.462 7.324 11.729 12.357 15.229zm28.313-15.228a35.475 35.475 0 0 1 6.748 6.27 42.54 42.54 0 0 1-19.104 8.958c5.032-3.499 9.259-8.766 12.356-15.228zm22.316-28.2-16.624-.001c-.173-8.166-1.758-15.812-4.456-22.41a38.453 38.453 0 0 0 7.767-7.083c.282.268.569.529.845.805 7.709 7.709 12.096 17.847 12.468 28.689zm-72.835-28.686c.277-.277.564-.539.847-.807a38.336 38.336 0 0 0 7.767 7.082c-2.697 6.598-4.282 14.242-4.456 22.408l-16.625-.001c.373-10.838 4.76-20.974 12.467-28.682zm-12.465 31.683 16.624.001c.174 8.165 1.759 15.811 4.456 22.409a38.394 38.394 0 0 0-7.755 7.067c-7.881-7.463-12.922-17.888-13.325-29.477zM508.463 375.874a1.5 1.5 0 1 0 0 3 1.5 1.5 0 0 0 0-3zm-.001 112.375a1.5 1.5 0 1 0 0 3 1.5 1.5 0 0 0 0-3zm9.096-112.375a1.5 1.5 0 1 0 0 3 1.5 1.5 0 0 0 0-3zm-.001 112.375a1.5 1.5 0 1 0 0 3 1.5 1.5 0 0 0 0-3zm9.097-112.375a1.5 1.5 0 1 0 0 3 1.5 1.5 0 0 0 0-3zm-.001 112.375a1.5 1.5 0 1 0 0 3 1.5 1.5 0 0 0 0-3zm9.097-112.375a1.5 1.5 0 1 0 0 3 1.5 1.5 0 0 0 0-3zm-.001 112.375a1.5 1.5 0 1 0 0 3 1.5 1.5 0 0 0 0-3zm9.096-112.375a1.5 1.5 0 1 0 0 3 1.5 1.5 0 0 0 0-3zm-.001 112.375a1.5 1.5 0 1 0 0 3 1.5 1.5 0 0 0 0-3zm9.097-112.375a1.5 1.5 0 1 0 0 3 1.5 1.5 0 0 0 0-3zm-.001 112.375a1.5 1.5 0 1 0 0 3 1.5 1.5 0 0 0 0-3zm9.097-112.375a1.5 1.5 0 1 0 0 3 1.5 1.5 0 0 0 0-3zm-.001 112.375a1.5 1.5 0 1 0 0 3 1.5 1.5 0 0 0 0-3zm9.097-112.375a1.5 1.5 0 1 0 0 3 1.5 1.5 0 0 0 0-3zm-.001 112.375a1.5 1.5 0 1 0 0 3 1.5 1.5 0 0 0 0-3zm9.096-112.375a1.5 1.5 0 1 0 0 3 1.5 1.5 0 0 0 0-3zm-.001 112.375a1.5 1.5 0 1 0 0 3 1.5 1.5 0 0 0 0-3zm9.097-112.375a1.5 1.5 0 1 0 0 3 1.5 1.5 0 0 0 0-3zm-.001 112.375a1.5 1.5 0 1 0 0 3 1.5 1.5 0 0 0 0-3zm9.097-112.375a1.5 1.5 0 1 0 0 3 1.5 1.5 0 0 0 0-3zm9.095 0a1.5 1.5 0 1 0 0 3 1.5 1.5 0 0 0 0-3zm9.096 0a1.5 1.5 0 1 0 0 3 1.5 1.5 0 0 0 0-3zm9.096 0a1.5 1.5 0 1 0 0 3 1.5 1.5 0 0 0 0-3zm-128.261.876a1.5 1.5 0 1 0 .519 2.953 1.5 1.5 0 0 0-.519-2.953zm-9.713 2.603a1.5 1.5 0 1 0 1.024 2.819 1.5 1.5 0 0 0-1.024-2.819zm-9.114 4.249a1.499 1.499 0 1 0 1.5 2.6 1.499 1.499 0 0 0-1.5-2.6zm-8.236 5.768a1.5 1.5 0 1 0 1.927 2.297 1.5 1.5 0 0 0-1.927-2.297zm-7.111 7.11a1.499 1.499 0 1 0 2.297 1.928 1.5 1.5 0 1 0-2.297-1.928zm-3.719 7.687a1.499 1.499 0 0 0-2.048.55 1.5 1.5 0 1 0 2.048-.55zm-4.377 8.766a1.499 1.499 0 0 0-1.921.897 1.499 1.499 0 1 0 1.921-.897zm-3.308 12.348a1.5 1.5 0 0 0 1.737-1.216 1.499 1.499 0 1 0-2.952-.521 1.497 1.497 0 0 0 1.215 1.737zm.907 8.28a1.499 1.499 0 1 0-2.999-.001 1.497 1.497 0 0 0 1.499 1.5 1.501 1.501 0 0 0 1.5-1.499zm.831 9.496a1.499 1.499 0 1 0-2.953.519 1.5 1.5 0 0 0 2.953-.519zm.544 8.311a1.498 1.498 0 0 0-.895 1.922 1.496 1.496 0 0 0 1.921.898 1.5 1.5 0 0 0-1.026-2.82zm3.902 8.987a1.498 1.498 0 0 0-.547 2.048 1.5 1.5 0 1 0 .547-2.048zm5.403 8.173a1.498 1.498 0 0 0-.183 2.112 1.5 1.5 0 1 0 .183-2.112zm6.741 7.11a1.498 1.498 0 0 0 .187 2.112 1.5 1.5 0 1 0-.187-2.112zm9.923 5.284a1.499 1.499 0 1 0-1.5 2.597 1.494 1.494 0 0 0 2.047-.548 1.5 1.5 0 0 0-.547-2.049zm8.64 4.028a1.5 1.5 0 1 0-1.026 2.819 1.5 1.5 0 0 0 1.026-2.819zm9.207 2.467a1.498 1.498 0 0 0-1.738 1.217c-.143.817.4 1.594 1.218 1.737a1.5 1.5 0 0 0 .52-2.954z"/><circle cx="589.571" cy="312.957" r="30.667" fill="#fc9e67"/><path fill="#fff" d="M599.915 311.457h-1.796c3.163-2.521 5.199-6.397 5.199-10.747 0-4.005-1.733-7.604-4.478-10.118a1.576 1.576 0 0 0-.175-.182c-.033-.028-.07-.048-.105-.073a13.678 13.678 0 0 0-8.989-3.368c-7.579 0-13.744 6.164-13.744 13.741 0 4.35 2.036 8.226 5.198 10.747h-1.797c-9.625 0-13.119 8.807-13.119 14.727a1.5 1.5 0 1 0 3 0c0-4.056 2.115-11.727 10.119-11.727H599.915c8.005 0 10.12 7.671 10.12 11.727a1.5 1.5 0 1 0 3 0c0-5.92-3.494-14.727-13.12-14.727zm-10.344-21.489c2.186 0 4.22.66 5.919 1.785-5.592 5.91-11.582 7.218-16.54 7.42.749-5.195 5.22-9.205 10.621-9.205zm0 21.489c-5.425 0-9.912-4.047-10.632-9.279 5.603-.201 12.421-1.64 18.795-8.435a10.68 10.68 0 0 1 2.583 6.967c.001 5.925-4.82 10.747-10.746 10.747z"/><path fill="#111416" d="M685.437 310.737h-.245a10.417 10.417 0 0 0 3.135-7.451c0-3.043-1.316-5.778-3.4-7.689-.045-.05-.089-.102-.142-.147-.027-.023-.058-.038-.085-.059a10.398 10.398 0 0 0-6.823-2.551c-5.761 0-10.448 4.687-10.448 10.447 0 2.915 1.203 5.553 3.135 7.451h-.246c-6.56 0-9.991 5.617-9.991 11.166a1.5 1.5 0 1 0 3 0c0-2.824 1.461-8.166 6.991-8.166h15.12c5.531 0 6.992 5.342 6.992 8.166a1.5 1.5 0 1 0 3 0c-.001-5.549-3.433-11.167-9.993-11.167zm-7.56-14.897c1.34 0 2.595.36 3.682.981-3.705 3.722-7.629 4.708-10.965 4.915.715-3.364 3.707-5.896 7.283-5.896zm0 14.897c-3.609 0-6.624-2.581-7.304-5.994 3.804-.208 8.713-1.311 13.242-5.934a7.398 7.398 0 0 1 1.512 4.478c0 4.108-3.342 7.45-7.45 7.45zm0-25.613c-7.435 0-14.424 2.895-19.681 8.152-4.901 4.901-7.748 11.311-8.11 18.181h-29.848a1.5 1.5 0 1 0 0 3h29.848c.362 6.871 3.209 13.279 8.11 18.182s11.31 7.748 18.181 8.11v27.435a1.5 1.5 0 1 0 3 0v-27.435c14.652-.782 26.334-12.948 26.334-27.793 0-15.347-12.487-27.832-27.834-27.832zm0 52.667c-6.633 0-12.869-2.583-17.56-7.273-4.69-4.691-7.273-10.927-7.273-17.561 0-6.633 2.583-12.869 7.273-17.56 4.69-4.69 10.927-7.273 17.56-7.273 13.693 0 24.834 11.14 24.834 24.833 0 13.693-11.141 24.834-24.834 24.834zM508.463 124.038c-18.137 0-32.893 14.755-32.893 32.893 0 8.782 3.419 17.038 9.629 23.25l.005.008c4.472 4.473 6.467 10.741 6.467 20.326a1.5 1.5 0 1 0 3 0c0-7.025-.835-15.922-7.331-22.431-.003-.003-.003-.007-.006-.01-5.652-5.647-8.764-13.156-8.764-21.143 0-16.483 13.41-29.893 29.893-29.893s29.893 13.41 29.893 29.893c0 7.989-3.112 15.498-8.764 21.143-.003.003-.004.008-.008.012-6.495 6.509-7.33 15.404-7.33 22.43a1.5 1.5 0 1 0 3 0c0-9.585 1.995-15.854 6.467-20.326l.004-.007c6.21-6.21 9.63-14.466 9.63-23.251 0-18.139-14.755-32.894-32.892-32.894zM497.934 160.2c-3.776 0-6.849 3.074-6.849 6.852a6.857 6.857 0 0 0 6.849 6.85h3.85v26.613a1.5 1.5 0 1 0 3 0v-26.613h7.358v26.613a1.5 1.5 0 1 0 3 0v-26.613h3.849c3.776 0 6.849-3.073 6.849-6.85 0-3.778-3.072-6.852-6.849-6.852-3.776 0-6.849 3.074-6.849 6.852v3.85h-7.358v-3.85c0-3.778-3.073-6.852-6.85-6.852zm3.85 10.701h-3.85a3.854 3.854 0 0 1-3.849-3.85 3.856 3.856 0 0 1 3.849-3.852 3.856 3.856 0 0 1 3.85 3.852v3.85zm13.358-3.85a3.856 3.856 0 0 1 3.849-3.852 3.855 3.855 0 0 1 3.849 3.852 3.854 3.854 0 0 1-3.849 3.85h-3.849v-3.85zm11.653 37.978h-36.664a1.5 1.5 0 1 0 0 3h36.664a1.5 1.5 0 1 0 0-3zm0 5.365h-36.664a1.5 1.5 0 1 0 0 3h36.664a1.5 1.5 0 1 0 0-3zm0 5.365h-36.664a1.5 1.5 0 1 0 0 3h36.664a1.5 1.5 0 1 0 0-3zm-3.742 5.365h-29.182a1.5 1.5 0 1 0 0 3h29.182a1.5 1.5 0 1 0 0-3z"/><path fill="#b8d1cd" d="M508.322 110.882a1.5 1.5 0 0 0-1.5 1.5v8.221a1.5 1.5 0 1 0 3 0v-8.221a1.5 1.5 0 0 0-1.5-1.5zm-35.229 46.45a1.5 1.5 0 0 0-1.499-1.502l-3.656-.003c-.017 0-.032.004-.049.005h-4.517a1.5 1.5 0 1 0 0 3h8.221a1.5 1.5 0 0 0 1.5-1.5zm8.2 24.907-.002-.002-2.592 2.583.005.006-3.228 3.228a1.5 1.5 0 1 0 2.121 2.121l5.813-5.813a1.5 1.5 0 0 0-2.117-2.123zm18.028-64.308a1.5 1.5 0 0 0-2.899.773l.944 3.537a1.5 1.5 0 0 0 2.899-.773l-.944-3.537zm-9.893 3.672a1.5 1.5 0 0 0-2.598 1.5l1.831 3.172h.001a1.5 1.5 0 0 0 2.598-1.5l-1.832-3.172zm-8.603 6.108-.004-.003-3.222-3.222a1.5 1.5 0 1 0-2.121 2.121l5.813 5.813c.293.293.677.439 1.061.439a1.502 1.502 0 0 0 1.062-2.561l-2.589-2.587zm-8.23 10.722 3.171 1.831a1.499 1.499 0 1 0 1.5-2.598l-3.171-1.831a1.5 1.5 0 1 0-1.5 2.598zm-3.673 9.889 3.535.949a1.5 1.5 0 0 0 .778-2.898l-3.535-.949a1.5 1.5 0 0 0-.778 2.898zm5.374 18.124a1.502 1.502 0 0 0-1.837-1.062l-3.535.946a1.5 1.5 0 0 0 .776 2.899l3.535-.946a1.502 1.502 0 0 0 1.061-1.837zm3.52 8.497a1.5 1.5 0 0 0-2.048-.552l-3.173 1.826a1.5 1.5 0 0 0 1.496 2.6l3.173-1.826c.719-.413.966-1.33.552-2.048zm75.456-19.111h-4.517c-.017 0-.032-.005-.049-.005l-3.659.003a1.5 1.5 0 0 0-1.059 2.562c.271.272.646.44 1.062.44h8.222a1.5 1.5 0 1 0 0-3zm-15.333 28.993.006-.006-2.594-2.583-.001.001a1.5 1.5 0 0 0-2.118 2.125l5.815 5.813a1.502 1.502 0 0 0 2.122 0 1.502 1.502 0 0 0 0-2.122l-3.23-3.228zm-18.778-67.956a1.5 1.5 0 0 0-1.837 1.061l-.947 3.537a1.5 1.5 0 1 0 2.898.776l.947-3.537a1.5 1.5 0 0 0-1.061-1.837zm10.104 4.185a1.499 1.499 0 0 0-2.049.549h-.001l-1.831 3.172a1.5 1.5 0 0 0 2.598 1.5l1.831-3.172a1.497 1.497 0 0 0-.548-2.049zm5.026 11.805a1.5 1.5 0 0 0 1.063-.439l5.815-5.812a1.5 1.5 0 1 0-2.122-2.122l-3.221 3.22-.008.005-2.588 2.587a1.501 1.501 0 0 0 1.061 2.561zm4.539 6.857a1.5 1.5 0 0 0 2.049.548l3.168-1.831a1.5 1.5 0 1 0-1.501-2.597l-3.168 1.831a1.5 1.5 0 0 0-.548 2.049zm3.52 8.496a1.501 1.501 0 0 0 1.838 1.06l3.534-.949a1.501 1.501 0 0 0-.778-2.898l-3.534.949a1.5 1.5 0 0 0-1.06 1.838zm5.371 18.119-3.534-.946a1.5 1.5 0 0 0-.777 2.898v.001l3.534.946v-.001a1.5 1.5 0 0 0 .777-2.898zm-3.672 9.886-3.172-1.826a1.499 1.499 0 1 0-1.497 2.599l3.172 1.826a1.499 1.499 0 1 0 1.497-2.599z"/><path fill="#fff" d="m743.321 404.25-9.105-19.959-9.104 19.959z"/><path fill="#111416" d="M744.819 404.231c-.001-.057-.01-.114-.018-.171-.005-.043-.007-.088-.017-.13-.008-.037-.022-.073-.033-.109a1.337 1.337 0 0 0-.062-.178l-.005-.016-5.521-12.103-.017-.037-3.567-7.819a1.498 1.498 0 0 0-2.728 0l-9.104 19.959-.005.016a1.365 1.365 0 0 0-.06.177c-.012.037-.026.073-.034.111-.01.041-.012.085-.017.128-.008.057-.017.114-.018.172l-.002.019v90.52a5.097 5.097 0 0 0 5.093 5.091h11.026a5.096 5.096 0 0 0 5.09-5.091v-90.52c.001-.007-.001-.013-.001-.019zm-18.207 77.516V405.75h6.104v75.997h-6.104zm5.009-88.153h5.191l4.177 9.155h-13.545l4.177-9.155zm4.095 12.156h6.104v75.997h-6.104V405.75zm-1.5-17.846 1.227 2.69h-2.455l1.228-2.69zm7.605 106.866a2.093 2.093 0 0 1-2.09 2.091h-11.026a2.094 2.094 0 0 1-2.093-2.091v-10.023h15.209v10.023zM828.018 351.957a1.5 1.5 0 0 0-1.5 1.5v28.281l-2.46 1.802v-35.25c0-.757-.563-1.376-1.29-1.479v-59.473c0-.03-.007-.058-.009-.087a1.29 1.29 0 0 0-.052-.313c-.007-.026-.009-.052-.018-.077l-6.271-18.715a1.499 1.499 0 0 0-2.844 0l-6.271 18.715c-.009.026-.011.052-.018.078a1.395 1.395 0 0 0-.052.312c-.002.029-.009.057-.009.087v59.473a1.495 1.495 0 0 0-1.29 1.479v43.697a1.5 1.5 0 0 0 1.5 1.5h15.123a1.5 1.5 0 0 0 1.5-1.5v-4.728l4.847-3.551c.386-.282.613-.732.613-1.21v-29.041a1.5 1.5 0 0 0-1.499-1.5zm-8.25-60.708H818.1a1.5 1.5 0 0 0 0 3h1.668v3.73H818.1a1.5 1.5 0 1 0 0 3h1.668v3.729H818.1a1.5 1.5 0 1 0 0 3h1.668v3.416h-9.543v-3.416h1.668a1.5 1.5 0 1 0 0-3h-1.668v-3.729h1.668a1.5 1.5 0 1 0 0-3h-1.668v-3.73h1.668a1.5 1.5 0 1 0 0-3h-1.668v-2.41h9.543v2.41zm-9.543 22.875h9.543v32.667h-9.543v-32.667zm4.772-40.781 4.188 12.495h-8.375l4.187-12.495zm6.061 117.144h-12.123V349.79h12.123v40.697z"/><path fill="#74d4b9" d="M838.905 221.29h16.333v16.333h-16.333z"/><path fill="#fc9e67" d="M838.905 251.623h16.333v16.333h-16.333zM838.905 281.956h16.333v16.333h-16.333z"/><path fill="#111416" d="m837.794 225.298 8.166 8.999a1.503 1.503 0 0 0 2.172.053l15.25-15.25a1.5 1.5 0 1 0-2.121-2.121l-15.25 15.25a1.497 1.497 0 0 1 2.172.053l-8.166-8.999a1.5 1.5 0 0 0-2.223 2.015zM837.794 255.632l8.166 8.999a1.503 1.503 0 0 0 2.172.053l15.25-15.25a1.5 1.5 0 1 0-2.121-2.121l-15.25 15.25a1.497 1.497 0 0 1 2.172.053l-8.166-8.999a1.5 1.5 0 0 0-2.223 2.015zM872.905 227.791h23a1.5 1.5 0 1 0 0-3h-23a1.5 1.5 0 1 0 0 3zm71.166 6.333h-71.166a1.5 1.5 0 1 0 0 3h71.166a1.5 1.5 0 1 0 0-3zm-37.25-6.333h8a1.5 1.5 0 1 0 0-3h-8a1.5 1.5 0 1 0 0 3zm17 0h11.5a1.5 1.5 0 1 0 0-3h-11.5a1.5 1.5 0 1 0 0 3zM872.905 257.791h23a1.5 1.5 0 1 0 0-3h-23a1.5 1.5 0 1 0 0 3zm71.166 6.333h-71.166a1.5 1.5 0 0 0 0 3h71.166a1.5 1.5 0 1 0 0-3zm-37.25-6.333h8a1.5 1.5 0 1 0 0-3h-8a1.5 1.5 0 1 0 0 3zm17 0h11.5a1.5 1.5 0 1 0 0-3h-11.5a1.5 1.5 0 1 0 0 3zM872.905 287.791h23a1.5 1.5 0 1 0 0-3h-23a1.5 1.5 0 1 0 0 3zm71.166 6.333h-71.166a1.5 1.5 0 0 0 0 3h71.166a1.5 1.5 0 1 0 0-3zm-37.25-6.333h8a1.5 1.5 0 1 0 0-3h-8a1.5 1.5 0 1 0 0 3zm17 0h11.5a1.5 1.5 0 1 0 0-3h-11.5a1.5 1.5 0 1 0 0 3z"/><path fill="#b8d1cd" d="M273.592 570.749c-17.517 0-31.716 14.2-31.716 31.717s14.2 31.717 31.716 31.717c17.517 0 31.716-14.2 31.716-31.717s-14.2-31.717-31.716-31.717zm0 57.068c-14.001 0-25.351-11.352-25.351-25.352s11.35-25.352 25.351-25.352 25.351 11.352 25.351 25.352-11.35 25.352-25.351 25.352z"/><path fill="#111416" d="M273.592 589.382a5.799 5.799 0 0 1 5.791 5.792 1.5 1.5 0 1 0 3 0c0-4.335-3.157-7.94-7.291-8.654v-2.503a1.5 1.5 0 1 0-3 0v2.503c-4.133.716-7.29 4.319-7.29 8.654 0 4.848 3.943 8.791 8.79 8.791a5.798 5.798 0 0 1 5.791 5.791c0 3.193-2.598 5.792-5.791 5.792s-5.79-2.599-5.79-5.792a1.5 1.5 0 1 0-3 0c0 4.335 3.157 7.939 7.29 8.654v2.505a1.5 1.5 0 1 0 3 0v-2.505c4.134-.715 7.291-4.319 7.291-8.654 0-4.848-3.943-8.791-8.791-8.791a5.797 5.797 0 0 1-5.79-5.791 5.797 5.797 0 0 1 5.79-5.792zm0-13.575c-14.7 0-26.659 11.959-26.659 26.658 0 14.699 11.96 26.658 26.659 26.658 14.7 0 26.659-11.959 26.659-26.658 0-14.699-11.96-26.658-26.659-26.658zm0 50.317c-13.046 0-23.659-10.613-23.659-23.658 0-13.045 10.613-23.658 23.659-23.658s23.659 10.613 23.659 23.658c0 13.044-10.614 23.658-23.659 23.658z"/><path fill="#b8d1cd" d="M608.574 681.956c-.136 14.9-12.252 26.953-27.19 26.953-15.023 0-27.205-12.188-27.205-27.205 0-15.029 12.183-27.203 27.205-27.203.175 0 .348.01.522.013v-18.308h-2.925a3.433 3.433 0 0 0-3.421 3.422v2.831a39.308 39.308 0 0 0-8.758 2.346l-1.416-2.451a3.426 3.426 0 0 0-4.672-1.252l-4.161 2.402a3.432 3.432 0 0 0-1.254 4.672l1.421 2.46a40.034 40.034 0 0 0-6.408 6.407l-2.461-1.42a3.432 3.432 0 0 0-4.674 1.256l-2.396 4.156a3.421 3.421 0 0 0 1.251 4.67l2.453 1.418a39.128 39.128 0 0 0-2.349 8.758h-2.834a3.433 3.433 0 0 0-3.419 3.421l.001 4.806a3.427 3.427 0 0 0 3.419 3.418h2.833a39.138 39.138 0 0 0 2.349 8.758l-2.453 1.418a3.436 3.436 0 0 0-1.253 4.678l2.402 4.156a3.434 3.434 0 0 0 4.674 1.252l2.457-1.423a39.908 39.908 0 0 0 6.408 6.413l-1.421 2.455a3.442 3.442 0 0 0 1.254 4.678l4.161 2.398a3.435 3.435 0 0 0 4.674-1.253l1.414-2.448a39.81 39.81 0 0 0 8.758 2.349v2.826a3.433 3.433 0 0 0 3.421 3.424h4.8a3.436 3.436 0 0 0 3.425-3.424v-2.826a39.745 39.745 0 0 0 8.757-2.349l1.418 2.448a3.432 3.432 0 0 0 4.671 1.253l4.159-2.4a3.438 3.438 0 0 0 1.253-4.676l-1.42-2.459a40.118 40.118 0 0 0 6.413-6.409l2.454 1.423a3.438 3.438 0 0 0 4.676-1.252l2.4-4.162a3.439 3.439 0 0 0-1.253-4.674l-2.454-1.416a39.338 39.338 0 0 0 2.349-8.758h2.832a3.43 3.43 0 0 0 3.422-3.418l-.001-2.151h-18.308z"/><path fill="#111416" d="M731.238 617.791h-73.166v-52.152c0-13.242-10.772-24.015-24.015-24.015-13.241 0-24.014 10.772-24.014 24.015v3.266c0 8.861-7.208 16.07-16.069 16.07h-67.942c-8.861 0-16.07-7.209-16.07-16.07v-67.567a1.5 1.5 0 1 0-3 0v67.567c0 10.516 8.555 19.07 19.07 19.07h67.942c10.515 0 19.069-8.555 19.069-19.07v-3.266c0-11.588 9.427-21.015 21.014-21.015 11.588 0 21.015 9.427 21.015 21.015v52.152h-73.166a1.5 1.5 0 0 0-1.5 1.5v62.666a1.5 1.5 0 0 0 1.5 1.5h149.332a1.5 1.5 0 0 0 1.5-1.5v-62.666a1.5 1.5 0 0 0-1.5-1.5zm-1.5 62.665H583.406V620.79h146.332v59.666zm-137.583-49.707h2.667a1.5 1.5 0 1 0 0-3h-2.667a1.5 1.5 0 1 0 0 3zm11.375 0h2.667a1.5 1.5 0 1 0 0-3h-2.667a1.5 1.5 0 1 0 0 3zm11.375 0h2.667a1.5 1.5 0 1 0 0-3h-2.667a1.5 1.5 0 1 0 0 3zm11.375 0h2.667a1.5 1.5 0 0 0 0-3h-2.667a1.5 1.5 0 0 0 0 3zm11.375 0h2.667a1.5 1.5 0 0 0 0-3h-2.667a1.5 1.5 0 0 0 0 3zm11.375 0h2.667a1.5 1.5 0 0 0 0-3h-2.667a1.5 1.5 0 0 0 0 3zm11.375 0h2.667a1.5 1.5 0 0 0 0-3h-2.667a1.5 1.5 0 0 0 0 3zm11.375 0h2.667a1.5 1.5 0 0 0 0-3h-2.667a1.5 1.5 0 0 0 0 3zm11.375 0h2.667a1.5 1.5 0 0 0 0-3h-2.667a1.5 1.5 0 0 0 0 3zm11.375 0h2.667a1.5 1.5 0 0 0 0-3h-2.667a1.5 1.5 0 0 0 0 3zm11.375 0h2.667a1.5 1.5 0 0 0 0-3h-2.667a1.5 1.5 0 0 0 0 3zm11.375 0h2.667a1.5 1.5 0 0 0 0-3h-2.667a1.5 1.5 0 0 0 0 3zm-125.125 14.579h2.667a1.5 1.5 0 1 0 0-3h-2.667a1.5 1.5 0 1 0 0 3zm11.375 0h2.667a1.5 1.5 0 1 0 0-3h-2.667a1.5 1.5 0 1 0 0 3zm11.375 0h2.667a1.5 1.5 0 1 0 0-3h-2.667a1.5 1.5 0 1 0 0 3zm11.375 0h2.667a1.5 1.5 0 0 0 0-3h-2.667a1.5 1.5 0 0 0 0 3zm11.375 0h2.667a1.5 1.5 0 0 0 0-3h-2.667a1.5 1.5 0 0 0 0 3zm11.375 0h2.667a1.5 1.5 0 0 0 0-3h-2.667a1.5 1.5 0 0 0 0 3zm11.375 0h2.667a1.5 1.5 0 0 0 0-3h-2.667a1.5 1.5 0 0 0 0 3zm11.375 0h2.667a1.5 1.5 0 0 0 0-3h-2.667a1.5 1.5 0 0 0 0 3zm11.375 0h2.667a1.5 1.5 0 0 0 0-3h-2.667a1.5 1.5 0 0 0 0 3zm11.375 0h2.667a1.5 1.5 0 0 0 0-3h-2.667a1.5 1.5 0 0 0 0 3zm11.375 0h2.667a1.5 1.5 0 0 0 0-3h-2.667a1.5 1.5 0 0 0 0 3zm11.375 0h2.667a1.5 1.5 0 0 0 0-3h-2.667a1.5 1.5 0 0 0 0 3zm-125.125 14.578h2.667a1.5 1.5 0 1 0 0-3h-2.667a1.5 1.5 0 1 0 0 3zm11.375 0h2.667a1.5 1.5 0 1 0 0-3h-2.667a1.5 1.5 0 1 0 0 3zm11.375 0h2.667a1.5 1.5 0 1 0 0-3h-2.667a1.5 1.5 0 1 0 0 3zm11.375 0h2.667a1.5 1.5 0 0 0 0-3h-2.667a1.5 1.5 0 0 0 0 3zm11.375 0h2.667a1.5 1.5 0 0 0 0-3h-2.667a1.5 1.5 0 0 0 0 3zm11.375 0h2.667a1.5 1.5 0 0 0 0-3h-2.667a1.5 1.5 0 0 0 0 3zm11.375 0h2.667a1.5 1.5 0 0 0 0-3h-2.667a1.5 1.5 0 0 0 0 3zm11.375 0h2.667a1.5 1.5 0 0 0 0-3h-2.667a1.5 1.5 0 0 0 0 3zm11.375 0h2.667a1.5 1.5 0 0 0 0-3h-2.667a1.5 1.5 0 0 0 0 3zm11.375 0h2.667a1.5 1.5 0 0 0 0-3h-2.667a1.5 1.5 0 0 0 0 3zm11.375 0h2.667a1.5 1.5 0 0 0 0-3h-2.667a1.5 1.5 0 0 0 0 3zm11.375 0h2.667a1.5 1.5 0 0 0 0-3h-2.667a1.5 1.5 0 0 0 0 3zm-125.125 13.802h2.667a1.5 1.5 0 1 0 0-3h-2.667a1.5 1.5 0 1 0 0 3zm11.375 0h93.667a1.5 1.5 0 0 0 0-3H603.53a1.5 1.5 0 1 0 0 3zm102.375 0h2.667a1.5 1.5 0 0 0 0-3h-2.667a1.5 1.5 0 0 0 0 3zm11.375 0h2.667a1.5 1.5 0 0 0 0-3h-2.667a1.5 1.5 0 0 0 0 3z"/><path fill="#b8d1cd" d="M526.032 592.251c-3.223 0-6.344-.644-9.277-1.915a1.5 1.5 0 1 0-1.193 2.752 26.158 26.158 0 0 0 10.47 2.163 1.5 1.5 0 1 0 0-3zm-14.599-5.126c-5.56-4.462-8.749-11.104-8.749-18.222v-14.946a1.5 1.5 0 1 0-3 0v14.946c0 8.033 3.598 15.527 9.871 20.562a1.5 1.5 0 1 0 1.878-2.34zm25.305 5.126h-4.333a1.5 1.5 0 1 0 0 3h4.333a1.5 1.5 0 1 0 0-3z"/><path fill="#111416" d="M234.571 251.374a6.758 6.758 0 0 0 6.75-6.75 6.758 6.758 0 0 0-6.75-6.75 6.758 6.758 0 0 0-6.75 6.75 6.758 6.758 0 0 0 6.75 6.75zm0-10.5a3.754 3.754 0 0 1 3.75 3.75 3.754 3.754 0 0 1-3.75 3.75 3.754 3.754 0 0 1-3.75-3.75 3.754 3.754 0 0 1 3.75-3.75zm46.151 105.217c-.004-.036-.012-.071-.02-.107a1.604 1.604 0 0 0-.064-.228c-.008-.021-.009-.043-.018-.063l-17.963-42.816a64.064 64.064 0 0 0 4.889-2.614 1.5 1.5 0 1 0-1.533-2.58 61.3 61.3 0 0 1-4.518 2.423L243.577 257.4a15.8 15.8 0 0 0 2.054-1.715 15.536 15.536 0 0 0 4.582-11.061c0-8.119-6.219-14.808-14.142-15.566v-.851h3.25a1.5 1.5 0 0 0 1.5-1.5v-24a6.21 6.21 0 0 0-1.831-4.42 6.211 6.211 0 0 0-4.419-1.83 6.257 6.257 0 0 0-6.25 6.25v24a1.5 1.5 0 0 0 1.5 1.5h3.25v.851c-7.923.758-14.142 7.447-14.142 15.566 0 4.178 1.627 8.106 4.581 11.061a15.8 15.8 0 0 0 2.054 1.715l-17.918 42.708a60.959 60.959 0 0 1-4.513-2.42 1.499 1.499 0 1 0-1.531 2.579 63.898 63.898 0 0 0 4.883 2.61l-17.963 42.816c-.008.02-.01.042-.018.063-.027.074-.048.15-.064.228-.007.035-.015.071-.02.107a1.455 1.455 0 0 0-.008.28c.001.017-.001.035.001.052.011.11.036.219.072.326.011.032.027.062.04.093.022.053.04.108.069.16h-.001l12.167 21.905a1.501 1.501 0 0 0 2.784-1.011l-4.116-21.46 16.704-39.828a64.826 64.826 0 0 0 18.438 2.684 64.79 64.79 0 0 0 18.438-2.684l16.704 39.828-4.116 21.46a1.501 1.501 0 0 0 2.784 1.011l12.167-21.905c.029-.052.047-.107.069-.16.013-.031.029-.061.04-.093.036-.107.061-.216.072-.326.002-.018-.001-.035 0-.052a1.31 1.31 0 0 0-.006-.28zm-49.401-143.384a3.254 3.254 0 0 1 3.25-3.25c.868 0 1.684.338 2.298.952.614.614.952 1.43.952 2.298v3.875h-6.5v-3.875zm0 22.5v-15.625h6.5v15.625h-6.5zm-9.392 19.417c0-6.971 5.671-12.642 12.642-12.642 6.971 0 12.642 5.671 12.642 12.642a12.56 12.56 0 0 1-3.703 8.94 12.559 12.559 0 0 1-8.931 3.702h-.016a12.557 12.557 0 0 1-8.931-3.702 12.562 12.562 0 0 1-3.703-8.94zm-29.476 103.15h4.177l2.203 11.486-6.38-11.486zm4.42-3h-4.712l17.054-40.649a64.094 64.094 0 0 0 4.05 1.565l-16.392 39.084zm17.554-41.856a61.529 61.529 0 0 1-4.052-1.56l17.814-42.461c1.328.595 2.737.997 4.196 1.2l-17.958 42.821zm20.144 3.374c-5.877 0-11.69-.844-17.271-2.468l17.271-41.18 17.271 41.18a61.853 61.853 0 0 1-17.271 2.468zm2.185-46.195a15.453 15.453 0 0 0 4.196-1.2l17.814 42.461a61.502 61.502 0 0 1-4.051 1.56l-17.959-42.821zm33.552 99.162 2.203-11.485h4.177l-6.38 11.485zm1.961-14.485-16.392-39.084a64.442 64.442 0 0 0 4.049-1.565l17.054 40.649h-4.711z"/><path fill="#b8d1cd" d="M1079.489 432.505h15.749v41.243h-15.749z"/><path fill="#111416" d="M1102.571 472.247h-21.582v-38.243h21.582a1.5 1.5 0 0 0 0-3h-37.262c-.728-2.408-2.979-5.558-5.971-8.217-2.59-2.302-7.931-6.164-14.604-6.164h-5.711a1.5 1.5 0 0 0 0 3h5.711c5.681 0 10.339 3.388 12.609 5.406 3.559 3.164 5.217 6.33 5.217 7.475a1.5 1.5 0 0 0 1.5 1.5h13.928v38.243h-13.928a1.501 1.501 0 0 0-1.5 1.5c0 3.093-2.952 5.003-5.429 6.062-3.287 1.404-7.806 2.21-12.397 2.21h-33.414a5.267 5.267 0 0 1-5.259-5.262c0-2.9 2.359-5.26 5.259-5.26h15.364a1.5 1.5 0 0 0 0-3h-15.364a5.265 5.265 0 0 1-5.259-5.259 5.267 5.267 0 0 1 5.259-5.263h15.364a1.5 1.5 0 0 0 0-3h-15.364a5.265 5.265 0 0 1-5.259-5.259 5.267 5.267 0 0 1 5.259-5.262h15.364a1.5 1.5 0 0 0 0-3h-15.364a5.266 5.266 0 0 1-5.259-5.26 5.267 5.267 0 0 1 5.259-5.262h34.094a1.5 1.5 0 0 0 0-3h-34.094c-4.554 0-8.259 3.706-8.259 8.262a8.25 8.25 0 0 0 3.528 6.76 8.254 8.254 0 0 0-3.528 6.762 8.249 8.249 0 0 0 3.528 6.759 8.256 8.256 0 0 0-3.528 6.763 8.25 8.25 0 0 0 3.527 6.759 8.252 8.252 0 0 0-3.527 6.76c0 4.556 3.705 8.262 8.259 8.262h33.414c4.983 0 9.931-.894 13.576-2.451 4.913-2.1 6.641-4.93 7.105-7.32h37.154a1.5 1.5 0 0 0 .002-3.001zm-17.275-7.644a3.001 3.001 0 0 0 6 0 3 3 0 1 0-6 0z"/><path fill="#fc9e67" d="m853.798 570.823.001 5.598a3.993 3.993 0 0 0 3.983 3.981h3.3a45.53 45.53 0 0 0 2.736 10.202l-2.857 1.651a4.001 4.001 0 0 0-1.46 5.448l2.798 4.842a4 4 0 0 0 5.444 1.459l2.862-1.658a46.425 46.425 0 0 0 7.464 7.47l-1.655 2.86c-1.094 1.899-.435 4.346 1.461 5.448l4.847 2.794a4 4 0 0 0 5.444-1.459l1.646-2.852a46.306 46.306 0 0 0 10.202 2.735v3.292a3.999 3.999 0 0 0 3.985 3.988h5.592a4.002 4.002 0 0 0 3.989-3.988v-3.292a46.304 46.304 0 0 0 10.2-2.735l1.651 2.852c1.094 1.896 3.549 2.554 5.441 1.459l4.845-2.796c1.895-1.101 2.555-3.547 1.46-5.446l-1.654-2.864a46.682 46.682 0 0 0 7.47-7.466l2.858 1.658a4.004 4.004 0 0 0 5.447-1.459l2.796-4.848c1.092-1.894.438-4.343-1.459-5.444l-2.858-1.649a45.852 45.852 0 0 0 2.736-10.202h3.299a3.994 3.994 0 0 0 3.985-3.981l-.003-5.598a3.995 3.995 0 0 0-3.982-3.984h-3.299a45.98 45.98 0 0 0-2.736-10.202l2.858-1.65c1.896-1.094 2.551-3.542 1.459-5.442l-2.796-4.846a4 4 0 0 0-5.447-1.457l-2.864 1.654a46.544 46.544 0 0 0-7.464-7.463l1.654-2.866a4 4 0 0 0-1.46-5.443l-4.845-2.797c-1.893-1.099-4.348-.441-5.441 1.458l-1.651 2.855a45.915 45.915 0 0 0-10.2-2.732v-3.297a4.001 4.001 0 0 0-3.989-3.986h-5.592a3.999 3.999 0 0 0-3.985 3.986v3.297a45.874 45.874 0 0 0-10.202 2.732l-1.648-2.855c-1.094-1.899-3.548-2.557-5.442-1.458l-4.847 2.799a3.997 3.997 0 0 0-1.461 5.441l1.655 2.866a46.585 46.585 0 0 0-7.464 7.463l-2.867-1.654a3.998 3.998 0 0 0-5.444 1.463l-2.791 4.842a3.985 3.985 0 0 0 1.458 5.44l2.857 1.65a45.602 45.602 0 0 0-2.736 10.202h-3.302c-2.188-.001-3.982 1.795-3.982 3.984zm35 2.799c0-9.943 8.06-17.998 17.999-17.998 9.94 0 17.994 8.055 17.994 17.998 0 9.936-8.055 18-17.994 18s-17.999-8.065-17.999-18z"/><path fill="#111416" d="M890.299 573.622c0-9.097 7.401-16.498 16.498-16.498 3.99 0 7.841 1.442 10.843 4.062a1.5 1.5 0 1 0 1.973-2.26 19.484 19.484 0 0 0-12.815-4.803c-10.751 0-19.498 8.747-19.498 19.498 0 2.061.32 4.091.952 6.034a1.501 1.501 0 0 0 2.854-.928 16.43 16.43 0 0 1-.807-5.105zm31.342 10.291a1.5 1.5 0 0 0-2.112.202 16.454 16.454 0 0 1-12.732 6.005 16.47 16.47 0 0 1-10.944-4.153 1.5 1.5 0 0 0-1.992 2.244 19.469 19.469 0 0 0 12.936 4.909 19.447 19.447 0 0 0 15.046-7.095 1.5 1.5 0 0 0-.202-2.112z"/><path fill="#fc9e67" d="M900.889 434.202a5.911 5.911 0 1 1 11.824 0 5.911 5.911 0 0 1-11.824 0z"/><path fill="#111416" d="M927.712 432.702h-3.227a17.592 17.592 0 0 0-1.622-6.043l2.796-1.615a1.5 1.5 0 1 0-1.5-2.598l-2.794 1.614a17.986 17.986 0 0 0-2.008-2.413 17.874 17.874 0 0 0-2.415-2.009l1.612-2.791a1.501 1.501 0 0 0-2.598-1.502l-1.615 2.794a17.6 17.6 0 0 0-6.042-1.62v-3.229a1.5 1.5 0 0 0-3 0v3.231a17.588 17.588 0 0 0-6.034 1.625l-1.617-2.806a1.501 1.501 0 0 0-2.6 1.498l1.616 2.803a17.877 17.877 0 0 0-4.422 4.421l-2.798-1.617a1.501 1.501 0 0 0-1.502 2.598l2.804 1.62a17.59 17.59 0 0 0-1.627 6.037l-3.227-.001a1.5 1.5 0 1 0-.002 3l3.228.001a17.584 17.584 0 0 0 1.626 6.037l-2.802 1.617a1.5 1.5 0 1 0 1.5 2.598l2.797-1.615a17.894 17.894 0 0 0 4.423 4.424l-1.614 2.797a1.5 1.5 0 1 0 2.598 1.5l1.617-2.802a17.573 17.573 0 0 0 6.035 1.626v3.229a1.5 1.5 0 0 0 3 0v-3.227a17.59 17.59 0 0 0 6.044-1.621l1.612 2.797a1.501 1.501 0 0 0 2.6-1.498l-1.612-2.797a17.94 17.94 0 0 0 2.414-2.009 17.936 17.936 0 0 0 2.009-2.415l2.794 1.611a1.501 1.501 0 0 0 1.498-2.6l-2.794-1.611a17.58 17.58 0 0 0 1.621-6.041h3.227a1.499 1.499 0 1 0 .001-2.998zm-10.476 11.934a14.664 14.664 0 0 1-10.437 4.322c-8.137 0-14.756-6.62-14.756-14.757s6.619-14.756 14.756-14.756c3.942 0 7.649 1.535 10.437 4.322a14.658 14.658 0 0 1 4.321 10.407c0 .009-.003.017-.003.026 0 .009.003.018.003.026a14.66 14.66 0 0 1-4.321 10.41zM906.8 408.779a1.5 1.5 0 1 0 0-3 1.5 1.5 0 0 0 0 3zm-8.695 1.533a1.498 1.498 0 0 0 .896-1.922 1.499 1.499 0 1 0-.896 1.922zm-7.646 4.415a1.497 1.497 0 0 0 .185-2.112 1.497 1.497 0 0 0-2.112-.185 1.5 1.5 0 0 0 1.927 2.297zm-7.724 7.313a1.5 1.5 0 1 0 1.5-2.597 1.5 1.5 0 0 0-1.5 2.597zm-2.187 6.011a1.5 1.5 0 1 0-.519 2.951 1.5 1.5 0 0 0 .519-2.951zm53.027 2.952a1.5 1.5 0 1 0-.518-2.955 1.5 1.5 0 0 0 .518 2.955zm-53.027 4.397a1.5 1.5 0 1 0-.519 2.951 1.5 1.5 0 0 0 .519-2.951zm53.027 2.951a1.5 1.5 0 1 0-.518-2.955 1.5 1.5 0 0 0 .518 2.955zm-53.027 4.398a1.498 1.498 0 1 0-.521 2.953c.815.144 1.594-.4 1.737-1.217a1.496 1.496 0 0 0-1.216-1.736zm53.027 2.951a1.5 1.5 0 1 0-.518-2.955 1.5 1.5 0 0 0 .518 2.955zm-53.027 4.397a1.5 1.5 0 1 0-.519 2.951 1.5 1.5 0 0 0 .519-2.951zm53.027 2.951a1.5 1.5 0 1 0-.518-2.955 1.5 1.5 0 0 0 .518 2.955zm-53.027 4.398a1.5 1.5 0 1 0-.519 2.951 1.5 1.5 0 0 0 .519-2.951zm53.027 2.951a1.5 1.5 0 1 0-.517-2.954 1.5 1.5 0 0 0 .517 2.954zm-53.027 4.398a1.5 1.5 0 1 0-.519 2.951 1.5 1.5 0 0 0 .519-2.951zm53.027 2.951a1.5 1.5 0 1 0-.518-2.955 1.5 1.5 0 0 0 .518 2.955zm-53.027 4.397a1.5 1.5 0 1 0-.519 2.951 1.5 1.5 0 0 0 .519-2.951zm53.027 2.951a1.5 1.5 0 1 0-.518-2.955 1.5 1.5 0 0 0 .518 2.955zm-53.027 4.398a1.5 1.5 0 1 0-.519 2.951 1.5 1.5 0 0 0 .519-2.951zm53.027 2.951a1.5 1.5 0 1 0-.517-2.954 1.5 1.5 0 0 0 .517 2.954zm-53.027 4.397a1.5 1.5 0 1 0-.519 2.951 1.5 1.5 0 0 0 .519-2.951zm53.027 2.952a1.5 1.5 0 1 0-.518-2.955 1.5 1.5 0 0 0 .518 2.955zm-53.027 4.397a1.5 1.5 0 1 0-.519 2.951 1.5 1.5 0 0 0 .519-2.951zm53.027 2.951a1.5 1.5 0 1 0-.518-2.955 1.5 1.5 0 0 0 .518 2.955zm-53.027 4.398a1.5 1.5 0 1 0-.519 2.951 1.5 1.5 0 0 0 .519-2.951zm53.027 2.951a1.5 1.5 0 1 0-.517-2.954 1.5 1.5 0 0 0 .517 2.954zm-53.027 4.397a1.5 1.5 0 1 0-.519 2.951 1.5 1.5 0 0 0 .519-2.951zm53.027 2.951a1.5 1.5 0 1 0-.518-2.955 1.5 1.5 0 0 0 .518 2.955zm-53.027 4.398a1.5 1.5 0 1 0-.519 2.951 1.5 1.5 0 0 0 .519-2.951zm53.027 2.951a1.5 1.5 0 1 0-.518-2.955 1.5 1.5 0 0 0 .518 2.955zm-53.027 4.397a1.5 1.5 0 1 0-.519 2.951 1.5 1.5 0 0 0 .519-2.951zm53.027 2.952a1.5 1.5 0 1 0-.518-2.955 1.5 1.5 0 0 0 .518 2.955zm-53.027 4.397a1.5 1.5 0 1 0-.519 2.951 1.5 1.5 0 0 0 .519-2.951zm53.027 2.951a1.5 1.5 0 1 0-.518-2.955 1.5 1.5 0 0 0 .518 2.955zm-53.027 4.398a1.5 1.5 0 1 0-.519 2.951 1.5 1.5 0 0 0 .519-2.951zm53.027 2.951a1.5 1.5 0 1 0-.518-2.955 1.5 1.5 0 0 0 .518 2.955zm-53.027 4.397a1.5 1.5 0 1 0-.519 2.951 1.5 1.5 0 0 0 .519-2.951zm53.027 2.952a1.5 1.5 0 1 0-.518-2.955 1.5 1.5 0 0 0 .518 2.955zm-53.027 4.397a1.5 1.5 0 1 0-.519 2.951 1.5 1.5 0 0 0 .519-2.951zm53.027 2.951a1.5 1.5 0 1 0-.518-2.955 1.5 1.5 0 0 0 .518 2.955zm-53.027 4.398a1.5 1.5 0 1 0-.519 2.951 1.5 1.5 0 0 0 .519-2.951zm53.027 2.951a1.5 1.5 0 1 0-.518-2.955 1.5 1.5 0 0 0 .518 2.955zm-53.027 4.397a1.5 1.5 0 1 0-.519 2.951 1.5 1.5 0 0 0 .519-2.951zm53.027 2.951a1.5 1.5 0 1 0-.518-2.955 1.5 1.5 0 0 0 .518 2.955zm-2.709-148.587a1.498 1.498 0 0 0 .55-2.05 1.502 1.502 0 0 0-2.049-.55 1.5 1.5 0 0 0 1.499 2.6zm-5.611-7.497a1.498 1.498 0 0 0-.185-2.114 1.502 1.502 0 0 0-2.113.185 1.501 1.501 0 0 0 2.298 1.929zm-9.758-4.231a1.5 1.5 0 1 0 1.025-2.818 1.5 1.5 0 0 0-1.025 2.818zm-8.695 188.733a1.5 1.5 0 1 0 0 3 1.5 1.5 0 0 0 0-3zm8.696-1.533a1.499 1.499 0 1 0 1.026 2.82 1.499 1.499 0 0 0-1.026-2.82zm7.646-4.415a1.5 1.5 0 1 0 1.929 2.299 1.5 1.5 0 0 0-1.929-2.299zm7.725-7.313a1.502 1.502 0 0 0-2.05.55 1.499 1.499 0 1 0 2.599 1.499 1.502 1.502 0 0 0-.549-2.049zm2.708-8.965a1.501 1.501 0 1 0-.52 2.957 1.501 1.501 0 0 0 .52-2.957zm-53.549.003a1.499 1.499 0 1 0 .519 2.953 1.499 1.499 0 0 0-.519-2.953zm2.709 8.964a1.5 1.5 0 1 0 1.499 2.598 1.5 1.5 0 0 0-1.499-2.598zm5.611 7.497a1.5 1.5 0 1 0 2.298 1.929 1.5 1.5 0 0 0-2.298-1.929zm9.759 4.229a1.499 1.499 0 1 0-1.026 2.818 1.503 1.503 0 0 0 1.924-.896 1.501 1.501 0 0 0-.898-1.922zM428.221 146.768h-7.735a10.083 10.083 0 0 0 2.937-7.119c0-5.579-4.539-10.118-10.119-10.118h-16.453a8.202 8.202 0 0 0 1.888-5.244c0-4.545-3.698-8.243-8.244-8.243h-32.088a1.5 1.5 0 1 0 0 3h32.088a5.25 5.25 0 0 1 5.244 5.243 5.25 5.25 0 0 1-5.244 5.244h-8.506a1.5 1.5 0 1 0 0 3h31.315c3.925 0 7.119 3.193 7.119 7.118 0 3.925-3.193 7.119-7.119 7.119a1.5 1.5 0 1 0 0 3h14.917c3.926 0 7.12 3.193 7.12 7.119 0 3.925-3.194 7.119-7.12 7.119h-58.365a1.5 1.5 0 1 0 0 3h58.365c5.58 0 10.12-4.539 10.12-10.119s-4.54-10.119-10.12-10.119zm-75.801-29.224a1.5 1.5 0 0 0-1.5-1.5h-4.625a1.5 1.5 0 1 0 0 3h4.625a1.5 1.5 0 0 0 1.5-1.5zm9.689 46.461H348.74a1.5 1.5 0 1 0 0 3h13.369a1.5 1.5 0 1 0 0-3z"/><path fill="#74d4b9" d="M437.717 115.889a3.43 3.43 0 0 0-3.419-3.421h-2.832a39.465 39.465 0 0 0-2.349-8.758l2.454-1.417a3.433 3.433 0 0 0 1.252-4.672l-2.4-4.16a3.434 3.434 0 0 0-4.676-1.251l-2.459 1.42a39.993 39.993 0 0 0-6.408-6.407l1.42-2.46a3.435 3.435 0 0 0-1.253-4.673l-4.159-2.401a3.426 3.426 0 0 0-4.671 1.252l-1.418 2.451a39.466 39.466 0 0 0-8.757-2.346v-2.831a3.435 3.435 0 0 0-3.425-3.422h-4.8a3.433 3.433 0 0 0-3.421 3.422v2.831a39.417 39.417 0 0 0-8.758 2.346l-1.415-2.451a3.426 3.426 0 0 0-4.672-1.252l-4.161 2.403a3.431 3.431 0 0 0-1.254 4.671l1.421 2.46a40.034 40.034 0 0 0-6.408 6.407l-2.461-1.42a3.434 3.434 0 0 0-4.674 1.256l-2.396 4.157a3.421 3.421 0 0 0 1.251 4.67l2.453 1.417a39.157 39.157 0 0 0-2.349 8.758v.075h20.785l.913-.015c2.42-7.392 9.349-12.735 17.549-12.735 10.215 0 18.494 8.279 18.494 18.498a18.3 18.3 0 0 1-1.725 7.739h4.317c7.509 0 13.619 6.109 13.619 13.618 0 1.254-.225 2.445-.544 3.599l3.96-.01c.026-.041.059-.073.083-.115l2.4-4.162a3.44 3.44 0 0 0-1.252-4.674l-2.454-1.416a39.407 39.407 0 0 0 2.349-8.758h2.832a3.43 3.43 0 0 0 3.421-3.419l-.003-4.804z"/><path fill="#111416" d="M654.78 226.629h-66.423c-4.582 0-8.31-3.727-8.31-8.309 0-4.582 3.728-8.309 8.31-8.309h22.528a1.5 1.5 0 1 0 0-3c-4.582 0-8.31-3.727-8.31-8.309 0-4.581 3.727-8.308 8.31-8.308h25.957a1.5 1.5 0 1 0 0-3h-25.957c-6.236 0-11.31 5.073-11.31 11.308 0 3.286 1.418 6.24 3.664 8.309h-14.883c-6.236 0-11.31 5.073-11.31 11.309 0 6.235 5.073 11.309 11.31 11.309h66.423a1.5 1.5 0 0 0 .001-3zm15.054 0h-6.727a1.5 1.5 0 1 0 0 3h6.727a1.5 1.5 0 1 0 0-3zm-25.304-36.234h20.179a1.5 1.5 0 1 0 0-3H644.53a1.5 1.5 0 1 0 0 3zm32.35-3h-4.484a1.5 1.5 0 1 0 0 3h4.484a1.5 1.5 0 1 0 0-3zm-57.75 19.616a1.5 1.5 0 1 0 0 3h11.5a1.5 1.5 0 1 0 0-3h-11.5zm16.5 1.5a1.5 1.5 0 0 0 1.5 1.5h1.875a1.5 1.5 0 1 0 0-3h-1.875a1.5 1.5 0 0 0-1.5 1.5z"/><path fill="#b8d1cd" d="M291.783 281.876c4.242 4.239 11.146 4.24 15.391 0 3.071-3.072 8.072-3.072 11.148 0a10.804 10.804 0 0 0 7.69 3.184c2.907 0 5.639-1.131 7.693-3.185a7.828 7.828 0 0 1 5.573-2.306c2.106 0 4.085.819 5.571 2.306a1.5 1.5 0 1 0 2.122-2.122 10.807 10.807 0 0 0-7.693-3.185c-2.908 0-5.64 1.131-7.694 3.185a7.825 7.825 0 0 1-5.572 2.306 7.82 7.82 0 0 1-5.569-2.306c-4.247-4.241-11.151-4.24-15.391 0-3.074 3.071-8.076 3.071-11.149 0a1.5 1.5 0 1 0-2.12 2.123zM962.78 662.762c4.242 4.24 11.146 4.24 15.391.001 3.071-3.072 8.072-3.071 11.149 0a10.8 10.8 0 0 0 7.689 3.185c2.907 0 5.64-1.131 7.693-3.185a7.831 7.831 0 0 1 5.573-2.307c2.105 0 4.084.819 5.571 2.307a1.5 1.5 0 1 0 2.121-2.121c-2.053-2.054-4.785-3.186-7.692-3.186s-5.641 1.131-7.694 3.186a7.83 7.83 0 0 1-5.571 2.307 7.822 7.822 0 0 1-5.57-2.307c-4.247-4.24-11.15-4.24-15.39 0-3.075 3.07-8.077 3.07-11.149 0a1.5 1.5 0 1 0-2.121 2.12z"/><path fill="#fc9e67" d="M481.563 236.423h-10.488a1.5 1.5 0 1 0 0 3h10.488a1.5 1.5 0 1 0 0-3zm-30.069 0h-33.931a1.5 1.5 0 1 0 0 3h33.931a1.5 1.5 0 1 0 0-3z"/><path fill="#b8d1cd" d="M319.571 99.624h-10.488a1.5 1.5 0 1 0 0 3h10.488a1.5 1.5 0 1 0 0-3zm-30.069 0h-33.931a1.5 1.5 0 1 0 0 3h33.931a1.5 1.5 0 1 0 0-3z"/><path fill="#fc9e67" d="M302.003 122.124h-98.432a1.5 1.5 0 1 0 0 3h98.432a1.5 1.5 0 1 0 0-3z"/><path fill="#b8d1cd" d="M263.238 554.125H252.75a1.5 1.5 0 1 0 0 3h10.488a1.5 1.5 0 1 0 0-3zm-30.07 0h-49.931a1.5 1.5 0 1 0 0 3h49.931a1.5 1.5 0 1 0 0-3z"/><path fill="#74d4b9" d="M219.673 576.625h-98.432a1.5 1.5 0 1 0 0 3h98.432a1.5 1.5 0 1 0 0-3zM707.237 146.957h-10.488a1.5 1.5 0 1 0 0 3h10.488a1.5 1.5 0 1 0 0-3zm-30.069 0h-84.431a1.5 1.5 0 1 0 0 3h84.431a1.5 1.5 0 1 0 0-3z"/><path fill="#b8d1cd" d="M714.571 245.791h-7.5a1.5 1.5 0 1 0 0 3h7.5a1.5 1.5 0 1 0 0-3zm-20.736 0h-28.597a1.5 1.5 0 1 0 0 3h28.597a1.5 1.5 0 1 0 0-3zM694.669 124.624h-70.932a1.5 1.5 0 1 0 0 3h70.932a1.5 1.5 0 1 0 0-3z"/><path fill="#74d4b9" d="M811.022 577.414h-10.488a1.5 1.5 0 0 0 0 3h10.488a1.5 1.5 0 0 0 0-3zm-30.069 0h-68.091a1.5 1.5 0 0 0 0 3h68.091a1.5 1.5 0 0 0 0-3z"/><path fill="#fc9e67" d="M798.454 555.081h-54.592a1.5 1.5 0 0 0 0 3h54.592a1.5 1.5 0 0 0 0-3z"/><path fill="#b8d1cd" d="M531.071 307.624c0-7.388-6.011-13.398-13.398-13.398a1.5 1.5 0 1 0 0 3c7.388 0 13.398-6.01 13.398-13.397a1.5 1.5 0 1 0-3 0c0 7.387 6.01 13.397 13.396 13.397a1.5 1.5 0 1 0 0-3c-7.387 0-13.396 6.011-13.396 13.398a1.5 1.5 0 1 0 3 0zm10.397-13.399c-5.732 0-10.396-4.664-10.396-10.397a1.5 1.5 0 1 0-3 0c0 5.733-4.665 10.397-10.398 10.397a1.5 1.5 0 1 0 0 3c5.734 0 10.398 4.664 10.398 10.398a1.5 1.5 0 1 0 3 0c0-5.734 4.664-10.398 10.396-10.398a1.5 1.5 0 1 0 0-3z"/><path fill="#fc9e67" d="M456.273 583.604c0-7.388-6.011-13.398-13.398-13.398a1.5 1.5 0 1 0 0 3c7.388 0 13.398-6.01 13.398-13.397a1.5 1.5 0 1 0-3 0c0 7.388 6.01 13.397 13.396 13.397a1.5 1.5 0 1 0 0-3c-7.387 0-13.396 6.011-13.396 13.398a1.5 1.5 0 1 0 3 0zm10.397-13.398c-5.732 0-10.396-4.664-10.396-10.397a1.5 1.5 0 1 0-3 0c0 5.733-4.664 10.397-10.398 10.397a1.5 1.5 0 1 0 0 3c5.734 0 10.398 4.665 10.398 10.398a1.5 1.5 0 1 0 3 0c0-5.733 4.664-10.398 10.396-10.398a1.5 1.5 0 1 0 0-3z"/><path fill="#74d4b9" d="M376.321 194.71a1.5 1.5 0 0 0-1.5 1.5v4.416a1.5 1.5 0 1 0 3 0v-4.416a1.5 1.5 0 0 0-1.5-1.5zm-4.334 8.75h-4.416a1.5 1.5 0 1 0 0 3h4.416a1.5 1.5 0 1 0 0-3zm4.334 4.333a1.5 1.5 0 0 0-1.5 1.5v4.416a1.5 1.5 0 1 0 3 0v-4.416a1.5 1.5 0 0 0-1.5-1.5zm8.75-4.333h-4.416a1.5 1.5 0 1 0 0 3h4.416a1.5 1.5 0 1 0 0-3zM701.073 514.124a1.5 1.5 0 0 0-1.5 1.5v4.416a1.5 1.5 0 0 0 3 0v-4.416a1.5 1.5 0 0 0-1.5-1.5zm-4.334 8.75h-4.416a1.5 1.5 0 0 0 0 3h4.416a1.5 1.5 0 0 0 0-3zm4.334 4.332a1.5 1.5 0 0 0-1.5 1.5v4.416a1.5 1.5 0 0 0 3 0v-4.416a1.5 1.5 0 0 0-1.5-1.5zm8.75-4.332h-4.416a1.5 1.5 0 0 0 0 3h4.416a1.5 1.5 0 0 0 0-3zM751.821 297.469a1.5 1.5 0 0 0-1.5 1.5v4.416a1.5 1.5 0 1 0 3 0v-4.416a1.5 1.5 0 0 0-1.5-1.5zm-4.334 8.75h-4.416a1.5 1.5 0 1 0 0 3h4.416a1.5 1.5 0 1 0 0-3zm4.334 4.333a1.5 1.5 0 0 0-1.5 1.5v4.416a1.5 1.5 0 1 0 3 0v-4.416a1.5 1.5 0 0 0-1.5-1.5zm8.75-4.333h-4.416a1.5 1.5 0 1 0 0 3h4.416a1.5 1.5 0 1 0 0-3zM225.503 627.625a1.5 1.5 0 0 0-1.5 1.5v4.416a1.5 1.5 0 1 0 3 0v-4.416a1.5 1.5 0 0 0-1.5-1.5zm-4.334 8.75h-4.416a1.5 1.5 0 1 0 0 3h4.416a1.5 1.5 0 1 0 0-3zm4.334 4.333a1.5 1.5 0 0 0-1.5 1.5v4.416a1.5 1.5 0 1 0 3 0v-4.416a1.5 1.5 0 0 0-1.5-1.5zm8.75-4.333h-4.416a1.5 1.5 0 1 0 0 3h4.416a1.5 1.5 0 1 0 0-3z"/><path fill="#b8d1cd" d="M1012.456 320.329a7.615 7.615 0 0 0 5.423 2.246 7.613 7.613 0 0 0 5.42-2.247 4.677 4.677 0 0 1 6.604.001 1.501 1.501 0 0 0 2.121-2.122c-2.989-2.988-7.855-2.988-10.847 0a4.636 4.636 0 0 1-3.299 1.369 4.636 4.636 0 0 1-3.302-1.368 1.5 1.5 0 1 0-2.12 2.121zM394.164 644.762a7.615 7.615 0 0 0 5.424 2.246 7.605 7.605 0 0 0 5.419-2.247 4.68 4.68 0 0 1 6.605.001 1.5 1.5 0 0 0 2.122-2.121c-2.99-2.988-7.855-2.988-10.847-.001a4.627 4.627 0 0 1-3.299 1.368 4.633 4.633 0 0 1-3.301-1.367 1.5 1.5 0 0 0-2.123 2.121z"/><path fill="#fc9e67" d="M777.275 197.358a5.773 5.773 0 0 1 5.767-5.767 5.773 5.773 0 0 1 5.766 5.767 5.773 5.773 0 0 1-5.766 5.766 5.773 5.773 0 0 1-5.767-5.766zm5.767 8.766c4.833 0 8.766-3.932 8.766-8.766s-3.933-8.767-8.766-8.767c-4.834 0-8.767 3.933-8.767 8.767s3.933 8.766 8.767 8.766z"/></svg>